<svg width="287" height="146" viewBox="0 0 287 146" fill="none" xmlns="http://www.w3.org/2000/svg">
<g filter="url(#filter0_f_217_2734)">
<path d="M279 5.00002C279 22.4658 275.495 39.7606 268.686 55.8969C261.876 72.0332 251.895 86.695 239.313 99.0452C226.731 111.395 211.793 121.192 195.354 127.876C178.914 134.56 161.294 138 143.5 138C125.706 138 108.086 134.56 91.6464 127.876C75.2068 121.192 60.2694 111.395 47.687 99.0452C35.1047 86.695 25.1238 72.0332 18.3143 55.8969C11.5048 39.7606 8 22.4658 8 5" stroke="white" stroke-opacity="0.6" stroke-width="5"/>
<path d="M269.5 5C269.5 38.1521 255.83 66.9463 232.388 90.3884C208.946 113.83 177.152 127 144 127C110.848 127 79.0537 113.83 55.6117 90.3884C32.1696 66.9463 18.5 38.1521 18.5 5" stroke="white" stroke-opacity="0.6" stroke-width="5"/>
</g>
<defs>
<filter id="filter0_f_217_2734" x="0.5" y="0" width="286" height="145.5" filterUnits="userSpaceOnUse" color-interpolation-filters="sRGB">
<feFlood flood-opacity="0" result="BackgroundImageFix"/>
<feBlend mode="normal" in="SourceGraphic" in2="BackgroundImageFix" result="shape"/>
<feGaussianBlur stdDeviation="2.5" result="effect1_foregroundBlur_217_2734"/>
</filter>
</defs>
</svg>
