<svg width="300" height="110" viewBox="0 0 300 110" fill="none" xmlns="http://www.w3.org/2000/svg">
<path d="M23.2759 0C16.875 0 11.1724 3.70968 6.86638 9.51613C2.67672 15.3226 0 23.2258 0 32.2581C0 41.129 2.67672 49.0323 6.86638 55L46.5517 110L86.2371 55C90.4267 49.1935 93.1034 41.2903 93.1034 32.2581C93.1034 23.3871 90.4267 15.4839 86.2371 9.51613C82.0474 3.70968 76.3448 0 69.8276 0C63.4267 0 57.7241 3.70968 53.4181 9.51613C49.2284 15.3226 46.5517 23.2258 46.5517 32.2581C46.5517 23.3871 43.875 15.4839 39.6853 9.51613C35.4957 3.70968 29.7931 0 23.2759 0Z" fill="#F18D78"/>
<path d="M126.724 0C120.323 0 114.621 3.70968 110.315 9.51613C106.125 15.3226 103.448 23.2258 103.448 32.2581C103.448 41.129 106.125 49.0323 110.315 55L150 110L189.685 55C193.875 49.1935 196.552 41.2903 196.552 32.2581C196.552 23.3871 193.875 15.4839 189.685 9.51613C185.496 3.70968 179.793 0 173.276 0C166.875 0 161.172 3.70968 156.866 9.51613C152.677 15.3226 150 23.2258 150 32.2581C150 23.3871 147.323 15.4839 143.134 9.51613C138.944 3.70968 133.241 0 126.724 0Z" fill="#F18D78"/>
<path d="M230.172 0C223.771 0 218.069 3.70968 213.763 9.51613C209.573 15.3226 206.896 23.2258 206.896 32.2581C206.896 41.129 209.573 49.0323 213.763 55L253.448 110L293.134 55C297.323 49.1935 300 41.2903 300 32.2581C300 23.3871 297.323 15.4839 293.134 9.51613C288.944 3.70968 283.241 0 276.724 0C270.323 0 264.621 3.70968 260.315 9.51613C256.125 15.3226 253.448 23.2258 253.448 32.2581C253.448 23.3871 250.771 15.4839 246.582 9.51613C242.392 3.70968 236.69 0 230.172 0Z" fill="#F18D78"/>
</svg>
