<svg width="1795" height="300" viewBox="0 0 1795 300" fill="none" xmlns="http://www.w3.org/2000/svg">
<ellipse cx="150.881" cy="264.268" rx="51.8807" ry="5.26772" fill="#606060" fill-opacity="0.2"/>
<ellipse cx="128.183" cy="243.938" rx="9.5" ry="22" fill="#F4F1F1"/>
<ellipse cx="168.5" cy="242" rx="9.5" ry="22" fill="#F4F1F1"/>
<ellipse cx="39.5685" cy="12.1157" rx="39.5685" ry="12.1157" transform="matrix(0.866026 -0.5 0.500421 0.865782 55 158.569)" fill="#606060"/>
<ellipse cx="39.5685" cy="12.1157" rx="39.5685" ry="12.1157" transform="matrix(0.866026 0.5 -0.499579 0.866268 176.147 116.663)" fill="#606060"/>
<rect x="94" y="93" width="113" height="151" rx="25" fill="#F4F4F1"/>
<ellipse cx="150.5" cy="111.5" rx="56.5" ry="60.5" fill="#F4F4F1"/>
<ellipse cx="133.638" cy="103.268" rx="2.638" ry="5.26772" fill="#606060"/>
<ellipse cx="168.638" cy="103.268" rx="2.638" ry="5.26772" fill="#606060"/>
<ellipse cx="122.5" cy="115.5" rx="8.5" ry="4.5" fill="#F9D4D4" fill-opacity="0.35"/>
<ellipse cx="181.5" cy="115.5" rx="8.5" ry="4.5" fill="#F9D4D4" fill-opacity="0.35"/>
<path d="M163.644 127.701C162.085 124.962 160.067 122.748 157.75 121.238C155.434 119.727 152.884 118.961 150.305 119.002C147.727 119.042 145.191 119.888 142.902 121.471C140.613 123.055 138.634 125.331 137.124 128.118L139.097 130.018C140.384 127.642 142.071 125.701 144.023 124.352C145.974 123.002 148.136 122.281 150.334 122.246C152.532 122.212 154.706 122.864 156.681 124.152C158.655 125.44 160.376 127.328 161.705 129.663L163.644 127.701Z" fill="#606060"/>
<ellipse cx="132" cy="108.5" rx="1.5" ry="3" transform="rotate(90 132 108.5)" fill="#50BEFC"/>
<ellipse cx="132" cy="107.75" rx="0.75" ry="1" transform="rotate(90 132 107.75)" fill="#B3E4FF"/>
<ellipse cx="170" cy="108.5" rx="1.5" ry="3" transform="rotate(90 170 108.5)" fill="#50BEFC"/>
<ellipse cx="170" cy="107.75" rx="0.75" ry="1" transform="rotate(90 170 107.75)" fill="#B3E4FF"/>
<ellipse cx="1645.88" cy="264.268" rx="51.8807" ry="5.26772" fill="#606060" fill-opacity="0.2"/>
<ellipse cx="1623.18" cy="243.938" rx="9.5" ry="22" fill="#F4F1F1"/>
<ellipse cx="1663.5" cy="242" rx="9.5" ry="22" fill="#F4F1F1"/>
<ellipse cx="39.5685" cy="12.1157" rx="39.5685" ry="12.1157" transform="matrix(0.866026 -0.5 0.500421 0.865782 1550 158.569)" fill="#606060"/>
<ellipse cx="39.5685" cy="12.1157" rx="39.5685" ry="12.1157" transform="matrix(0.866026 0.5 -0.499579 0.866268 1671.15 116.663)" fill="#606060"/>
<rect x="1589" y="93" width="113" height="151" rx="25" fill="#F4F4F1"/>
<ellipse cx="1645.5" cy="111.5" rx="56.5" ry="60.5" fill="#F4F4F1"/>
<ellipse cx="1628.64" cy="103.268" rx="2.638" ry="5.26772" fill="#606060"/>
<ellipse cx="1663.64" cy="103.268" rx="2.638" ry="5.26772" fill="#606060"/>
<ellipse cx="1617.5" cy="115.5" rx="8.5" ry="4.5" fill="#F9D4D4" fill-opacity="0.35"/>
<ellipse cx="1676.5" cy="115.5" rx="8.5" ry="4.5" fill="#F9D4D4" fill-opacity="0.35"/>
<path d="M1658.64 127.701C1657.09 124.962 1655.07 122.748 1652.75 121.238C1650.43 119.727 1647.88 118.961 1645.31 119.002C1642.73 119.042 1640.19 119.888 1637.9 121.471C1635.61 123.055 1633.63 125.331 1632.12 128.118L1634.1 130.018C1635.38 127.642 1637.07 125.701 1639.02 124.352C1640.97 123.002 1643.14 122.281 1645.33 122.246C1647.53 122.212 1649.71 122.864 1651.68 124.152C1653.66 125.44 1655.38 127.328 1656.71 129.663L1658.64 127.701Z" fill="#606060"/>
<ellipse cx="1627" cy="108.5" rx="1.5" ry="3" transform="rotate(90 1627 108.5)" fill="#50BEFC"/>
<ellipse cx="1627" cy="107.75" rx="0.75" ry="1" transform="rotate(90 1627 107.75)" fill="#B3E4FF"/>
<ellipse cx="1665" cy="108.5" rx="1.5" ry="3" transform="rotate(90 1665 108.5)" fill="#50BEFC"/>
<ellipse cx="1665" cy="107.75" rx="0.75" ry="1" transform="rotate(90 1665 107.75)" fill="#B3E4FF"/>
<ellipse cx="426.881" cy="260.268" rx="51.8807" ry="5.26772" fill="#606060" fill-opacity="0.2"/>
<ellipse cx="416.419" cy="241.959" rx="9.5" ry="22" transform="rotate(-40 416.419 241.959)" fill="#F4F1F1"/>
<ellipse cx="457.419" cy="240.959" rx="9.5" ry="22" transform="rotate(-40 457.419 240.959)" fill="#F4F1F1"/>
<ellipse cx="39.5685" cy="12.1157" rx="39.5685" ry="12.1157" transform="matrix(0.766044 -0.642788 0.64316 0.765732 352 158.868)" fill="#606060"/>
<ellipse cx="39.5685" cy="12.1157" rx="39.5685" ry="12.1157" transform="matrix(0.5 0.866026 -0.865782 0.500421 484.8 112.389)" fill="#606060"/>
<rect x="398.221" y="82.3618" width="113" height="151" rx="25" transform="rotate(10 398.221 82.3618)" fill="#F4F4F1"/>
<ellipse cx="450.65" cy="110.392" rx="56.5" ry="60.5" transform="rotate(10 450.65 110.392)" fill="#F4F4F1"/>
<ellipse cx="435.513" cy="100.646" rx="2.638" ry="5.26772" transform="rotate(10 435.513 100.646)" fill="#606060"/>
<ellipse cx="467.513" cy="105.646" rx="2.638" ry="5.26772" transform="rotate(10 467.513 105.646)" fill="#606060"/>
<ellipse cx="422.273" cy="112.413" rx="8.5" ry="4.5" transform="rotate(10 422.273 112.413)" fill="#F9D4D4" fill-opacity="0.35"/>
<ellipse cx="475.152" cy="120.908" rx="8.5" ry="4.5" transform="rotate(10 475.152 120.908)" fill="#F9D4D4" fill-opacity="0.35"/>
<path d="M460.323 128.716C459.264 125.748 457.66 123.218 455.641 121.328C453.622 119.438 451.244 118.241 448.698 117.833C446.151 117.425 443.508 117.818 440.978 118.98C438.449 120.141 436.105 122.04 434.134 124.522L435.747 126.736C437.427 124.62 439.426 123.001 441.582 122.011C443.738 121.02 445.992 120.686 448.163 121.033C450.334 121.381 452.361 122.401 454.082 124.013C455.803 125.624 457.17 127.781 458.073 130.312L460.323 128.716Z" fill="#606060"/>
<ellipse cx="432.215" cy="109.998" rx="1.5" ry="3" transform="rotate(100 432.215 109.998)" fill="#50BEFC"/>
<ellipse cx="432.345" cy="109.26" rx="0.75" ry="1" transform="rotate(100 432.345 109.26)" fill="#B3E4FF"/>
<ellipse cx="468.215" cy="110.998" rx="1.5" ry="3" transform="rotate(100 468.215 110.998)" fill="#50BEFC"/>
<ellipse cx="468.345" cy="110.26" rx="0.75" ry="1" transform="rotate(100 468.345 110.26)" fill="#B3E4FF"/>
<ellipse cx="1325.88" cy="260.268" rx="51.8807" ry="5.26772" fill="#606060" fill-opacity="0.2"/>
<ellipse cx="1315.42" cy="241.959" rx="9.5" ry="22" transform="rotate(-40 1315.42 241.959)" fill="#F4F1F1"/>
<ellipse cx="1356.42" cy="240.959" rx="9.5" ry="22" transform="rotate(-40 1356.42 240.959)" fill="#F4F1F1"/>
<ellipse cx="39.5685" cy="12.1157" rx="39.5685" ry="12.1157" transform="matrix(0.766044 -0.642788 0.64316 0.765732 1251 158.868)" fill="#606060"/>
<ellipse cx="39.5685" cy="12.1157" rx="39.5685" ry="12.1157" transform="matrix(0.5 0.866026 -0.865782 0.500421 1383.8 112.389)" fill="#606060"/>
<rect x="1297.22" y="82.3618" width="113" height="151" rx="25" transform="rotate(10 1297.22 82.3618)" fill="#F4F4F1"/>
<ellipse cx="1349.65" cy="110.392" rx="56.5" ry="60.5" transform="rotate(10 1349.65 110.392)" fill="#F4F4F1"/>
<ellipse cx="1334.51" cy="100.646" rx="2.638" ry="5.26772" transform="rotate(10 1334.51 100.646)" fill="#606060"/>
<ellipse cx="1366.51" cy="105.646" rx="2.638" ry="5.26772" transform="rotate(10 1366.51 105.646)" fill="#606060"/>
<ellipse cx="1321.27" cy="112.413" rx="8.5" ry="4.5" transform="rotate(10 1321.27 112.413)" fill="#F9D4D4" fill-opacity="0.35"/>
<ellipse cx="1374.15" cy="120.908" rx="8.5" ry="4.5" transform="rotate(10 1374.15 120.908)" fill="#F9D4D4" fill-opacity="0.35"/>
<path d="M1359.32 128.716C1358.26 125.748 1356.66 123.218 1354.64 121.328C1352.62 119.438 1350.24 118.241 1347.7 117.833C1345.15 117.425 1342.51 117.818 1339.98 118.98C1337.45 120.141 1335.1 122.04 1333.13 124.522L1334.75 126.736C1336.43 124.62 1338.43 123.001 1340.58 122.011C1342.74 121.02 1344.99 120.686 1347.16 121.033C1349.33 121.381 1351.36 122.401 1353.08 124.013C1354.8 125.624 1356.17 127.781 1357.07 130.312L1359.32 128.716Z" fill="#606060"/>
<ellipse cx="1331.22" cy="109.998" rx="1.5" ry="3" transform="rotate(100 1331.22 109.998)" fill="#50BEFC"/>
<ellipse cx="1331.34" cy="109.26" rx="0.75" ry="1" transform="rotate(100 1331.34 109.26)" fill="#B3E4FF"/>
<ellipse cx="1367.22" cy="110.998" rx="1.5" ry="3" transform="rotate(100 1367.22 110.998)" fill="#50BEFC"/>
<ellipse cx="1367.35" cy="110.26" rx="0.75" ry="1" transform="rotate(100 1367.35 110.26)" fill="#B3E4FF"/>
<ellipse cx="715.881" cy="260.268" rx="51.8807" ry="5.26772" fill="#606060" fill-opacity="0.2"/>
<ellipse cx="699.954" cy="247.907" rx="9.5" ry="22" transform="rotate(-65 699.954 247.907)" fill="#F4F1F1"/>
<ellipse cx="751.954" cy="245.907" rx="9.5" ry="22" transform="rotate(-65 751.954 245.907)" fill="#F4F1F1"/>
<ellipse cx="39.5685" cy="12.1157" rx="39.5685" ry="12.1157" transform="matrix(0.766044 -0.642788 0.64316 0.765732 635 163.868)" fill="#606060"/>
<ellipse cx="39.5685" cy="12.1157" rx="39.5685" ry="12.1157" transform="matrix(0.5 0.866026 -0.865782 0.500421 762.979 113)" fill="#606060"/>
<rect x="672.16" y="91.8401" width="113" height="151" rx="25" transform="rotate(5 672.16 91.8401)" fill="#F4F4F1"/>
<ellipse cx="726.833" cy="115.194" rx="56.5" ry="60.5" transform="rotate(5 726.833 115.194)" fill="#F4F4F1"/>
<ellipse cx="710.087" cy="110.478" rx="2.638" ry="5.26772" transform="rotate(5 710.087 110.478)" fill="#606060"/>
<ellipse cx="745.392" cy="113.646" rx="2.638" ry="5.26772" transform="rotate(5 745.392 113.646)" fill="#606060"/>
<ellipse cx="697.86" cy="123.224" rx="8.5" ry="4.5" transform="rotate(5 697.86 123.224)" fill="#F9D4D4" fill-opacity="0.35"/>
<ellipse cx="753.031" cy="128.908" rx="8.5" ry="4.5" transform="rotate(5 753.031 128.908)" fill="#F9D4D4" fill-opacity="0.35"/>
<path d="M738.608 136.252C737.294 133.387 735.476 131.006 733.3 129.299C731.124 127.592 728.65 126.607 726.078 126.423C723.506 126.238 720.906 126.86 718.488 128.238C716.069 129.615 713.9 131.711 712.153 134.356L713.952 136.421C715.442 134.166 717.292 132.379 719.353 131.205C721.415 130.03 723.631 129.5 725.824 129.657C728.017 129.815 730.125 130.654 731.98 132.11C733.835 133.565 735.385 135.595 736.506 138.037L738.608 136.252Z" fill="#606060"/>
<ellipse cx="708.119" cy="124.756" rx="1.5" ry="3" transform="rotate(95 708.119 124.756)" fill="#50BEFC"/>
<ellipse cx="708.185" cy="124.009" rx="0.75" ry="1" transform="rotate(95 708.185 124.009)" fill="#B3E4FF"/>
<ellipse cx="746.094" cy="118.998" rx="1.5" ry="3" transform="rotate(95 746.094 118.998)" fill="#50BEFC"/>
<ellipse cx="746.16" cy="118.251" rx="0.75" ry="1" transform="rotate(95 746.16 118.251)" fill="#B3E4FF"/>
<ellipse cx="1005.88" cy="260.268" rx="51.8807" ry="5.26772" fill="#606060" fill-opacity="0.2"/>
<ellipse cx="991.709" cy="251.87" rx="9.5" ry="22" transform="rotate(-75 991.709 251.87)" fill="#F4F1F1"/>
<ellipse cx="1050.71" cy="249.87" rx="9.5" ry="22" transform="rotate(-75 1050.71 249.87)" fill="#F4F1F1"/>
<ellipse cx="39.5685" cy="12.1157" rx="39.5685" ry="12.1157" transform="matrix(0.766044 -0.642788 0.64316 0.765732 922 165.868)" fill="#606060"/>
<ellipse cx="39.5685" cy="12.1157" rx="39.5685" ry="12.1157" transform="matrix(0.5 0.866026 -0.865782 0.500421 1050.98 112)" fill="#606060"/>
<rect x="955.27" y="100.974" width="113" height="151" rx="25" transform="rotate(2 955.27 100.974)" fill="#F4F4F1"/>
<ellipse cx="1011.09" cy="121.435" rx="56.5" ry="60.5" transform="rotate(2 1011.09 121.435)" fill="#F4F4F1"/>
<ellipse cx="994.82" cy="112.357" rx="2.638" ry="5.26772" transform="rotate(2 994.82 112.357)" fill="#606060"/>
<ellipse cx="1029.82" cy="113.357" rx="2.638" ry="5.26772" transform="rotate(2 1029.82 113.357)" fill="#606060"/>
<ellipse cx="986.652" cy="125.794" rx="8.5" ry="4.5" transform="rotate(2 986.652 125.794)" fill="#F9D4D4" fill-opacity="0.35"/>
<ellipse cx="1038.65" cy="128.794" rx="8.5" ry="4.5" transform="rotate(2 1038.65 128.794)" fill="#F9D4D4" fill-opacity="0.35"/>
<path d="M1023.86 134.73C1022.4 131.939 1020.46 129.656 1018.19 128.065C1015.93 126.474 1013.41 125.62 1010.83 125.571C1008.25 125.521 1005.69 126.278 1003.35 127.78C1001 129.283 998.946 131.489 997.34 134.222L999.245 136.19C1000.61 133.86 1002.37 131.979 1004.37 130.698C1006.36 129.417 1008.55 128.772 1010.75 128.814C1012.94 128.856 1015.09 129.585 1017.02 130.941C1018.95 132.297 1020.61 134.243 1021.85 136.623L1023.86 134.73Z" fill="#606060"/>
<ellipse cx="1031.05" cy="118.604" rx="1.5" ry="3" transform="rotate(92 1031.05 118.604)" fill="#50BEFC"/>
<ellipse cx="1031.08" cy="117.854" rx="0.75" ry="1" transform="rotate(92 1031.08 117.854)" fill="#B3E4FF"/>
</svg>
