<svg width="1199" height="300" viewBox="0 0 1199 300" fill="none" xmlns="http://www.w3.org/2000/svg">
<ellipse cx="699.236" cy="256.268" rx="51.8807" ry="5.26772" fill="#606060" fill-opacity="0.2"/>
<ellipse cx="39.5685" cy="12.1157" rx="39.5685" ry="12.1157" transform="matrix(0.939693 -0.34202 0.342476 0.939526 604 144.861)" fill="#606060"/>
<ellipse cx="717.855" cy="234" rx="9.5" ry="22" fill="#F4F1F1"/>
<ellipse cx="676.855" cy="234" rx="9.5" ry="22" fill="#F4F1F1"/>
<g clip-path="url(#clip0_700_1706)">
<ellipse cx="39.5572" cy="9.86197" rx="39.5572" ry="9.86197" transform="matrix(0.891295 -0.453424 0.454557 0.890718 714.875 156.4)" fill="#606060"/>
<rect x="641.012" y="62.5826" width="119.589" height="168.567" rx="25" fill="#F4F4F1"/>
<ellipse cx="700.819" cy="98.5787" rx="59.8073" ry="60.5787" fill="#F4F4F1"/>
<ellipse cx="666.512" cy="109.114" rx="6.14567" ry="9.67267" transform="rotate(-90 666.512 109.114)" fill="#F9D4D4" fill-opacity="0.5"/>
<ellipse cx="736.859" cy="109.114" rx="6.14567" ry="9.67267" transform="rotate(-90 736.859 109.114)" fill="#F9D4D4" fill-opacity="0.5"/>
</g>
<ellipse cx="701.501" cy="117.5" rx="6.5" ry="5.5" fill="#DA6F6F"/>
<ellipse cx="683.639" cy="91.2677" rx="2.638" ry="5.26772" fill="#606060"/>
<ellipse cx="716.639" cy="91.2677" rx="2.638" ry="5.26772" fill="#606060"/>
<ellipse cx="1099.24" cy="256.268" rx="51.8807" ry="5.26772" fill="#606060" fill-opacity="0.2"/>
<ellipse cx="39.5685" cy="12.1157" rx="39.5685" ry="12.1157" transform="matrix(0.939693 -0.34202 0.342476 0.939526 1004 144.861)" fill="#606060"/>
<ellipse cx="1117.86" cy="234" rx="9.5" ry="22" fill="#F4F1F1"/>
<ellipse cx="1076.86" cy="234" rx="9.5" ry="22" fill="#F4F1F1"/>
<g clip-path="url(#clip1_700_1706)">
<ellipse cx="39.5572" cy="9.86197" rx="39.5572" ry="9.86197" transform="matrix(0.891295 -0.453424 0.454557 0.890718 1114.88 156.4)" fill="#606060"/>
<rect x="1041.01" y="62.5826" width="119.589" height="168.567" rx="25" fill="#F4F4F1"/>
<ellipse cx="1100.82" cy="98.5787" rx="59.8073" ry="60.5787" fill="#F4F4F1"/>
<ellipse cx="1066.51" cy="109.114" rx="6.14567" ry="9.67267" transform="rotate(-90 1066.51 109.114)" fill="#F9D4D4" fill-opacity="0.5"/>
<ellipse cx="1136.86" cy="109.114" rx="6.14567" ry="9.67267" transform="rotate(-90 1136.86 109.114)" fill="#F9D4D4" fill-opacity="0.5"/>
</g>
<ellipse cx="1101.5" cy="117.5" rx="6.5" ry="5.5" fill="#DA6F6F"/>
<ellipse cx="1083.64" cy="91.2677" rx="2.638" ry="5.26772" fill="#606060"/>
<ellipse cx="1116.64" cy="91.2677" rx="2.638" ry="5.26772" fill="#606060"/>
<ellipse cx="499.235" cy="256.268" rx="51.8807" ry="5.26772" fill="#606060" fill-opacity="0.2"/>
<ellipse cx="39.5685" cy="12.1157" rx="39.5685" ry="12.1157" transform="matrix(0.866025 -0.5 0.500421 0.865782 405 152.006)" fill="#606060"/>
<ellipse cx="517.854" cy="234" rx="9.5" ry="22" fill="#F4F1F1"/>
<ellipse cx="476.854" cy="234" rx="9.5" ry="22" fill="#F4F1F1"/>
<g clip-path="url(#clip2_700_1706)">
<ellipse cx="39.5572" cy="9.86197" rx="39.5572" ry="9.86197" transform="matrix(0.891295 -0.453424 0.454557 0.890718 514.874 156.4)" fill="#606060"/>
<rect x="441.01" y="62.5826" width="119.589" height="168.567" rx="25" fill="#F4F4F1"/>
<ellipse cx="500.818" cy="98.5787" rx="59.8073" ry="60.5787" fill="#F4F4F1"/>
<ellipse cx="466.511" cy="109.114" rx="6.14567" ry="9.67267" transform="rotate(-90 466.511 109.114)" fill="#F9D4D4" fill-opacity="0.5"/>
<ellipse cx="536.857" cy="109.114" rx="6.14567" ry="9.67267" transform="rotate(-90 536.857 109.114)" fill="#F9D4D4" fill-opacity="0.5"/>
</g>
<ellipse cx="501.5" cy="118" rx="9.5" ry="7" fill="#DA6F6F"/>
<ellipse cx="483.638" cy="91.2677" rx="2.638" ry="5.26772" fill="#606060"/>
<ellipse cx="516.638" cy="91.2677" rx="2.638" ry="5.26772" fill="#606060"/>
<ellipse cx="898.235" cy="256.268" rx="51.8807" ry="5.26772" fill="#606060" fill-opacity="0.2"/>
<ellipse cx="39.5685" cy="12.1157" rx="39.5685" ry="12.1157" transform="matrix(0.866025 -0.5 0.500421 0.865782 804 152.006)" fill="#606060"/>
<ellipse cx="916.854" cy="234" rx="9.5" ry="22" fill="#F4F1F1"/>
<ellipse cx="875.854" cy="234" rx="9.5" ry="22" fill="#F4F1F1"/>
<g clip-path="url(#clip3_700_1706)">
<ellipse cx="39.5572" cy="9.86197" rx="39.5572" ry="9.86197" transform="matrix(0.891295 -0.453424 0.454557 0.890718 913.874 156.4)" fill="#606060"/>
<rect x="840.01" y="62.5826" width="119.589" height="168.567" rx="25" fill="#F4F4F1"/>
<ellipse cx="899.818" cy="98.5787" rx="59.8073" ry="60.5787" fill="#F4F4F1"/>
<ellipse cx="865.511" cy="109.114" rx="6.14567" ry="9.67267" transform="rotate(-90 865.511 109.114)" fill="#F9D4D4" fill-opacity="0.5"/>
<ellipse cx="935.857" cy="109.114" rx="6.14567" ry="9.67267" transform="rotate(-90 935.857 109.114)" fill="#F9D4D4" fill-opacity="0.5"/>
</g>
<ellipse cx="900.5" cy="118" rx="9.5" ry="7" fill="#DA6F6F"/>
<ellipse cx="882.638" cy="91.2677" rx="2.638" ry="5.26772" fill="#606060"/>
<ellipse cx="915.638" cy="91.2677" rx="2.638" ry="5.26772" fill="#606060"/>
<ellipse cx="99.2352" cy="256.268" rx="51.8807" ry="5.26772" fill="#606060" fill-opacity="0.2"/>
<ellipse cx="39.5685" cy="12.1157" rx="39.5685" ry="12.1157" transform="matrix(0.866025 -0.5 0.500421 0.865782 5 152.006)" fill="#606060"/>
<ellipse cx="117.854" cy="234" rx="9.5" ry="22" fill="#F4F1F1"/>
<ellipse cx="76.854" cy="234" rx="9.5" ry="22" fill="#F4F1F1"/>
<g clip-path="url(#clip4_700_1706)">
<ellipse cx="39.5572" cy="9.86197" rx="39.5572" ry="9.86197" transform="matrix(0.891295 -0.453424 0.454557 0.890718 114.874 156.4)" fill="#606060"/>
<rect x="41.0103" y="62.5826" width="119.589" height="168.567" rx="25" fill="#F4F4F1"/>
<ellipse cx="100.818" cy="98.5787" rx="59.8073" ry="60.5787" fill="#F4F4F1"/>
<ellipse cx="66.5106" cy="109.114" rx="6.14567" ry="9.67267" transform="rotate(-90 66.5106 109.114)" fill="#F9D4D4" fill-opacity="0.5"/>
<ellipse cx="136.857" cy="109.114" rx="6.14567" ry="9.67267" transform="rotate(-90 136.857 109.114)" fill="#F9D4D4" fill-opacity="0.5"/>
</g>
<ellipse cx="100.354" cy="117.5" rx="11" ry="6.5" fill="#DA6F6F"/>
<ellipse cx="83.993" cy="89.2677" rx="2.638" ry="5.26772" fill="#606060"/>
<ellipse cx="116.993" cy="89.2677" rx="2.638" ry="5.26772" fill="#606060"/>
<ellipse cx="300.236" cy="256.268" rx="51.8807" ry="5.26772" fill="#606060" fill-opacity="0.2"/>
<ellipse cx="39.5685" cy="12.1157" rx="39.5685" ry="12.1157" transform="matrix(0.939693 -0.34202 0.342476 0.939526 205 144.861)" fill="#606060"/>
<ellipse cx="318.855" cy="234" rx="9.5" ry="22" fill="#F4F1F1"/>
<ellipse cx="277.855" cy="234" rx="9.5" ry="22" fill="#F4F1F1"/>
<g clip-path="url(#clip5_700_1706)">
<ellipse cx="39.5572" cy="9.86197" rx="39.5572" ry="9.86197" transform="matrix(0.891295 -0.453424 0.454557 0.890718 315.875 156.4)" fill="#606060"/>
<rect x="242.012" y="62.5826" width="119.589" height="168.567" rx="25" fill="#F4F4F1"/>
<ellipse cx="301.819" cy="98.5787" rx="59.8073" ry="60.5787" fill="#F4F4F1"/>
<ellipse cx="267.512" cy="109.114" rx="6.14567" ry="9.67267" transform="rotate(-90 267.512 109.114)" fill="#F9D4D4" fill-opacity="0.5"/>
<ellipse cx="337.859" cy="109.114" rx="6.14567" ry="9.67267" transform="rotate(-90 337.859 109.114)" fill="#F9D4D4" fill-opacity="0.5"/>
</g>
<ellipse cx="302.501" cy="117.5" rx="6.5" ry="5.5" fill="#DA6F6F"/>
<ellipse cx="284.639" cy="91.2677" rx="2.638" ry="5.26772" fill="#606060"/>
<ellipse cx="317.639" cy="91.2677" rx="2.638" ry="5.26772" fill="#606060"/>
<defs>
<clipPath id="clip0_700_1706">
<rect width="185" height="223" fill="white" transform="translate(609.355 38)"/>
</clipPath>
<clipPath id="clip1_700_1706">
<rect width="185" height="223" fill="white" transform="translate(1009.36 38)"/>
</clipPath>
<clipPath id="clip2_700_1706">
<rect width="185" height="223" fill="white" transform="translate(409.354 38)"/>
</clipPath>
<clipPath id="clip3_700_1706">
<rect width="185" height="223" fill="white" transform="translate(808.354 38)"/>
</clipPath>
<clipPath id="clip4_700_1706">
<rect width="185" height="223" fill="white" transform="translate(9.354 38)"/>
</clipPath>
<clipPath id="clip5_700_1706">
<rect width="185" height="223" fill="white" transform="translate(210.355 38)"/>
</clipPath>
</defs>
</svg>
