<svg width="1200" height="250" viewBox="0 0 1200 250" fill="none" xmlns="http://www.w3.org/2000/svg">
<ellipse cx="96.8807" cy="233.268" rx="51.8807" ry="5.26772" fill="#606060" fill-opacity="0.2"/>
<ellipse cx="39.5685" cy="12.1157" rx="39.5685" ry="12.1157" transform="matrix(0.906234 0.422776 -0.422336 0.906439 12.2339 92)" fill="#606060"/>
<ellipse cx="115.5" cy="211" rx="9.5" ry="22" fill="#F4F1F1"/>
<ellipse cx="74.5" cy="211" rx="9.5" ry="22" fill="#F4F1F1"/>
<g clip-path="url(#clip0_682_1122)">
<ellipse cx="39.5572" cy="9.86197" rx="39.5572" ry="9.86197" transform="matrix(0.891295 -0.453424 0.454557 0.890718 112.52 133.4)" fill="#606060"/>
<rect x="38.656" y="39.5827" width="119.589" height="168.567" rx="25" fill="#F4F4F1"/>
<ellipse cx="98.4633" cy="75.5787" rx="59.8073" ry="60.5787" fill="#F4F4F1"/>
<ellipse cx="64.1568" cy="86.1142" rx="6.14567" ry="9.67267" transform="rotate(-90 64.1568 86.1142)" fill="#F9D4D4" fill-opacity="0.5"/>
<ellipse cx="134.503" cy="86.1142" rx="6.14567" ry="9.67267" transform="rotate(-90 134.503 86.1142)" fill="#F9D4D4" fill-opacity="0.5"/>
</g>
<ellipse cx="98" cy="94.5" rx="11" ry="6.5" fill="#DA6F6F"/>
<path d="M75 73C75 72.0807 75.2069 71.1705 75.609 70.3212C76.011 69.4719 76.6003 68.7003 77.3431 68.0503C78.086 67.4002 78.9679 66.8846 79.9385 66.5328C80.9091 66.1811 81.9494 66 83 66C84.0506 66 85.0909 66.1811 86.0615 66.5328C87.0321 66.8846 87.914 67.4002 88.6569 68.0503C89.3997 68.7003 89.989 69.4719 90.391 70.3212C90.7931 71.1705 91 72.0807 91 73L88.732 73C88.732 72.3414 88.5837 71.6892 88.2957 71.0806C88.0076 70.4721 87.5854 69.9192 87.0531 69.4535C86.5209 68.9878 85.889 68.6183 85.1935 68.3663C84.4981 68.1142 83.7527 67.9845 83 67.9845C82.2473 67.9845 81.5019 68.1142 80.8065 68.3663C80.111 68.6183 79.4791 68.9878 78.9469 69.4535C78.4146 69.9192 77.9924 70.4721 77.7043 71.0806C77.4163 71.6892 77.268 72.3414 77.268 73H75Z" fill="#606060"/>
<path d="M108 73C108 72.0807 108.207 71.1705 108.609 70.3212C109.011 69.4719 109.6 68.7003 110.343 68.0503C111.086 67.4002 111.968 66.8846 112.939 66.5328C113.909 66.1811 114.949 66 116 66C117.051 66 118.091 66.1811 119.061 66.5328C120.032 66.8846 120.914 67.4002 121.657 68.0503C122.4 68.7003 122.989 69.4719 123.391 70.3212C123.793 71.1705 124 72.0807 124 73L121.732 73C121.732 72.3414 121.584 71.6892 121.296 71.0806C121.008 70.4721 120.585 69.9192 120.053 69.4535C119.521 68.9878 118.889 68.6183 118.194 68.3663C117.498 68.1142 116.753 67.9845 116 67.9845C115.247 67.9845 114.502 68.1142 113.806 68.3663C113.111 68.6183 112.479 68.9878 111.947 69.4535C111.415 69.9192 110.992 70.4721 110.704 71.0806C110.416 71.6892 110.268 72.3414 110.268 73H108Z" fill="#606060"/>
<ellipse cx="699.881" cy="232.268" rx="51.8807" ry="5.26772" fill="#606060" fill-opacity="0.2"/>
<ellipse cx="39.5685" cy="12.1157" rx="39.5685" ry="12.1157" transform="matrix(0.906234 0.422776 -0.422336 0.906439 615.234 91)" fill="#606060"/>
<ellipse cx="718.5" cy="210" rx="9.5" ry="22" fill="#F4F1F1"/>
<ellipse cx="677.5" cy="210" rx="9.5" ry="22" fill="#F4F1F1"/>
<g clip-path="url(#clip1_682_1122)">
<ellipse cx="39.5572" cy="9.86197" rx="39.5572" ry="9.86197" transform="matrix(0.891295 -0.453424 0.454557 0.890718 715.52 132.4)" fill="#606060"/>
<rect x="641.656" y="38.5827" width="119.589" height="168.567" rx="25" fill="#F4F4F1"/>
<ellipse cx="701.463" cy="74.5787" rx="59.8073" ry="60.5787" fill="#F4F4F1"/>
<ellipse cx="667.157" cy="85.1142" rx="6.14567" ry="9.67267" transform="rotate(-90 667.157 85.1142)" fill="#F9D4D4" fill-opacity="0.5"/>
<ellipse cx="737.503" cy="85.1142" rx="6.14567" ry="9.67267" transform="rotate(-90 737.503 85.1142)" fill="#F9D4D4" fill-opacity="0.5"/>
</g>
<ellipse cx="701" cy="93.5" rx="11" ry="6.5" fill="#DA6F6F"/>
<path d="M678 72C678 71.0807 678.207 70.1705 678.609 69.3212C679.011 68.4719 679.6 67.7003 680.343 67.0503C681.086 66.4002 681.968 65.8846 682.939 65.5328C683.909 65.1811 684.949 65 686 65C687.051 65 688.091 65.1811 689.061 65.5328C690.032 65.8846 690.914 66.4002 691.657 67.0503C692.4 67.7003 692.989 68.4719 693.391 69.3212C693.793 70.1705 694 71.0807 694 72L691.732 72C691.732 71.3414 691.584 70.6892 691.296 70.0806C691.008 69.4721 690.585 68.9192 690.053 68.4535C689.521 67.9878 688.889 67.6183 688.194 67.3663C687.498 67.1142 686.753 66.9845 686 66.9845C685.247 66.9845 684.502 67.1142 683.806 67.3663C683.111 67.6183 682.479 67.9878 681.947 68.4535C681.415 68.9192 680.992 69.4721 680.704 70.0806C680.416 70.6892 680.268 71.3414 680.268 72H678Z" fill="#606060"/>
<path d="M711 72C711 71.0807 711.207 70.1705 711.609 69.3212C712.011 68.4719 712.6 67.7003 713.343 67.0503C714.086 66.4002 714.968 65.8846 715.939 65.5328C716.909 65.1811 717.949 65 719 65C720.051 65 721.091 65.1811 722.061 65.5328C723.032 65.8846 723.914 66.4002 724.657 67.0503C725.4 67.7003 725.989 68.4719 726.391 69.3212C726.793 70.1705 727 71.0807 727 72L724.732 72C724.732 71.3414 724.584 70.6892 724.296 70.0806C724.008 69.4721 723.585 68.9192 723.053 68.4535C722.521 67.9878 721.889 67.6183 721.194 67.3663C720.498 67.1142 719.753 66.9845 719 66.9845C718.247 66.9845 717.502 67.1142 716.806 67.3663C716.111 67.6183 715.479 67.9878 714.947 68.4535C714.415 68.9192 713.992 69.4721 713.704 70.0806C713.416 70.6892 713.268 71.3414 713.268 72H711Z" fill="#606060"/>
<ellipse cx="39.5572" cy="9.86197" rx="39.5572" ry="9.86197" transform="matrix(0.906308 0.422618 -0.421465 0.906844 523.313 79)" fill="#606060"/>
<ellipse cx="500.881" cy="232.268" rx="51.8807" ry="5.26772" fill="#606060" fill-opacity="0.2"/>
<ellipse cx="39.5685" cy="12.1157" rx="39.5685" ry="12.1157" transform="matrix(0.906308 -0.422618 0.423058 0.906102 405 112.455)" fill="#606060"/>
<ellipse cx="518.511" cy="198" rx="9.5" ry="22" fill="#F4F1F1"/>
<ellipse cx="477.511" cy="198" rx="9.5" ry="22" fill="#F4F1F1"/>
<rect x="441.667" y="26.5827" width="119.589" height="168.567" rx="25" fill="#F4F4F1"/>
<ellipse cx="501.475" cy="62.5787" rx="59.8073" ry="60.5787" fill="#F4F4F1"/>
<ellipse cx="467.168" cy="73.1142" rx="6.14567" ry="9.67267" transform="rotate(-90 467.168 73.1142)" fill="#F9D4D4" fill-opacity="0.5"/>
<ellipse cx="537.515" cy="73.1142" rx="6.14567" ry="9.67267" transform="rotate(-90 537.515 73.1142)" fill="#F9D4D4" fill-opacity="0.5"/>
<ellipse cx="484.649" cy="57.2677" rx="2.638" ry="5.26772" fill="#606060"/>
<ellipse cx="517.649" cy="57.2677" rx="2.638" ry="5.26772" fill="#606060"/>
<path d="M514.773 77.2039C515.144 78.9766 515.081 80.8001 514.589 82.5491C514.096 84.298 513.185 85.9311 511.919 87.3362C510.653 88.7412 509.061 89.885 507.253 90.689C505.445 91.493 503.463 91.9382 501.445 91.994C499.426 92.0498 497.417 91.7149 495.557 91.0123C493.697 90.3096 492.029 89.2559 490.668 87.9234C489.307 86.591 488.284 85.0113 487.672 83.2929C487.059 81.5745 486.869 79.758 487.117 77.9682L501.011 79.5L514.773 77.2039Z" fill="#DA6F6F"/>
<ellipse cx="39.5572" cy="9.86197" rx="39.5572" ry="9.86197" transform="matrix(0.906308 0.422618 -0.421465 0.906844 1123.31 79)" fill="#606060"/>
<ellipse cx="1100.88" cy="232.268" rx="51.8807" ry="5.26772" fill="#606060" fill-opacity="0.2"/>
<ellipse cx="39.5685" cy="12.1157" rx="39.5685" ry="12.1157" transform="matrix(0.906308 -0.422618 0.423058 0.906102 1005 112.455)" fill="#606060"/>
<ellipse cx="1118.51" cy="198" rx="9.5" ry="22" fill="#F4F1F1"/>
<ellipse cx="1077.51" cy="198" rx="9.5" ry="22" fill="#F4F1F1"/>
<rect x="1041.67" y="26.5827" width="119.589" height="168.567" rx="25" fill="#F4F4F1"/>
<ellipse cx="1101.47" cy="62.5787" rx="59.8073" ry="60.5787" fill="#F4F4F1"/>
<ellipse cx="1067.17" cy="73.1142" rx="6.14567" ry="9.67267" transform="rotate(-90 1067.17 73.1142)" fill="#F9D4D4" fill-opacity="0.5"/>
<ellipse cx="1137.52" cy="73.1142" rx="6.14567" ry="9.67267" transform="rotate(-90 1137.52 73.1142)" fill="#F9D4D4" fill-opacity="0.5"/>
<ellipse cx="1084.65" cy="57.2677" rx="2.638" ry="5.26772" fill="#606060"/>
<ellipse cx="1117.65" cy="57.2677" rx="2.638" ry="5.26772" fill="#606060"/>
<path d="M1114.77 77.2039C1115.14 78.9766 1115.08 80.8001 1114.59 82.5491C1114.1 84.298 1113.19 85.9311 1111.92 87.3362C1110.65 88.7412 1109.06 89.885 1107.25 90.689C1105.44 91.493 1103.46 91.9382 1101.44 91.994C1099.43 92.0498 1097.42 91.7149 1095.56 91.0123C1093.7 90.3096 1092.03 89.2559 1090.67 87.9234C1089.31 86.591 1088.28 85.0113 1087.67 83.2929C1087.06 81.5745 1086.87 79.758 1087.12 77.9682L1101.01 79.5L1114.77 77.2039Z" fill="#DA6F6F"/>
<ellipse cx="39.5572" cy="9.86197" rx="39.5572" ry="9.86197" transform="matrix(0.965926 0.258819 -0.257591 0.966254 315.081 92)" fill="#606060"/>
<ellipse cx="301.881" cy="232.268" rx="51.8807" ry="5.26772" fill="#606060" fill-opacity="0.2"/>
<ellipse cx="39.5685" cy="12.1157" rx="39.5685" ry="12.1157" transform="matrix(0.984808 -0.173648 0.174126 0.984723 206 107.742)" fill="#606060"/>
<ellipse cx="316.511" cy="206" rx="9.5" ry="22" fill="#F4F1F1"/>
<ellipse cx="275.511" cy="206" rx="9.5" ry="22" fill="#F4F1F1"/>
<rect x="239.667" y="34.5827" width="119.589" height="168.567" rx="25" fill="#F4F4F1"/>
<ellipse cx="299.475" cy="70.5787" rx="59.8073" ry="60.5787" fill="#F4F4F1"/>
<ellipse cx="265.168" cy="81.1142" rx="6.14567" ry="9.67267" transform="rotate(-90 265.168 81.1142)" fill="#F9D4D4" fill-opacity="0.5"/>
<ellipse cx="335.515" cy="81.1142" rx="6.14567" ry="9.67267" transform="rotate(-90 335.515 81.1142)" fill="#F9D4D4" fill-opacity="0.5"/>
<ellipse cx="282.649" cy="65.2677" rx="2.638" ry="5.26772" fill="#606060"/>
<ellipse cx="315.649" cy="65.2677" rx="2.638" ry="5.26772" fill="#606060"/>
<path d="M312.773 85.2039C313.144 86.9766 313.081 88.8001 312.589 90.5491C312.096 92.298 311.185 93.9311 309.919 95.3362C308.653 96.7412 307.061 97.885 305.253 98.689C303.445 99.493 301.463 99.9382 299.445 99.994C297.426 100.05 295.417 99.7149 293.557 99.0123C291.697 98.3096 290.029 97.2559 288.668 95.9234C287.307 94.591 286.284 93.0113 285.672 91.2929C285.059 89.5745 284.869 87.758 285.117 85.9682L299.011 87.5L312.773 85.2039Z" fill="#DA6F6F"/>
<ellipse cx="39.5572" cy="9.86197" rx="39.5572" ry="9.86197" transform="matrix(0.965926 0.258819 -0.257591 0.966254 915.081 94)" fill="#606060"/>
<ellipse cx="901.881" cy="232.268" rx="51.8807" ry="5.26772" fill="#606060" fill-opacity="0.2"/>
<ellipse cx="39.5685" cy="12.1157" rx="39.5685" ry="12.1157" transform="matrix(0.984808 -0.173648 0.174126 0.984723 806 108.742)" fill="#606060"/>
<ellipse cx="916.511" cy="206" rx="9.5" ry="22" fill="#F4F1F1"/>
<ellipse cx="875.511" cy="206" rx="9.5" ry="22" fill="#F4F1F1"/>
<rect x="839.667" y="34.5827" width="119.589" height="168.567" rx="25" fill="#F4F4F1"/>
<ellipse cx="899.475" cy="70.5787" rx="59.8073" ry="60.5787" fill="#F4F4F1"/>
<ellipse cx="865.168" cy="81.1142" rx="6.14567" ry="9.67267" transform="rotate(-90 865.168 81.1142)" fill="#F9D4D4" fill-opacity="0.5"/>
<ellipse cx="935.515" cy="81.1142" rx="6.14567" ry="9.67267" transform="rotate(-90 935.515 81.1142)" fill="#F9D4D4" fill-opacity="0.5"/>
<ellipse cx="882.649" cy="65.2677" rx="2.638" ry="5.26772" fill="#606060"/>
<ellipse cx="915.649" cy="65.2677" rx="2.638" ry="5.26772" fill="#606060"/>
<path d="M912.773 85.2039C913.144 86.9766 913.081 88.8001 912.589 90.5491C912.096 92.298 911.185 93.9311 909.919 95.3362C908.653 96.7412 907.061 97.885 905.253 98.689C903.445 99.493 901.463 99.9382 899.445 99.994C897.426 100.05 895.417 99.7149 893.557 99.0123C891.697 98.3096 890.029 97.2559 888.668 95.9234C887.307 94.591 886.284 93.0113 885.672 91.2929C885.059 89.5745 884.869 87.758 885.117 85.9682L899.011 87.5L912.773 85.2039Z" fill="#DA6F6F"/>
<defs>
<clipPath id="clip0_682_1122">
<rect width="185" height="223" fill="white" transform="translate(7 15)"/>
</clipPath>
<clipPath id="clip1_682_1122">
<rect width="185" height="223" fill="white" transform="translate(610 14)"/>
</clipPath>
</defs>
</svg>
