<svg width="1200" height="300" viewBox="0 0 1200 300" fill="none" xmlns="http://www.w3.org/2000/svg">
<ellipse cx="100.881" cy="254.268" rx="51.8807" ry="5.26772" fill="#606060" fill-opacity="0.2"/>
<ellipse cx="78.1826" cy="233.938" rx="9.5" ry="22" fill="#F4F1F1"/>
<ellipse cx="118.5" cy="232" rx="9.5" ry="22" fill="#F4F1F1"/>
<ellipse cx="39.5685" cy="12.1157" rx="39.5685" ry="12.1157" transform="matrix(0.866026 -0.5 0.500421 0.865782 5 148.569)" fill="#606060"/>
<ellipse cx="39.5685" cy="12.1157" rx="39.5685" ry="12.1157" transform="matrix(0.866026 0.5 -0.499579 0.866268 126.147 106.663)" fill="#606060"/>
<rect x="44" y="83" width="113" height="151" rx="25" fill="#F4F4F1"/>
<ellipse cx="100.5" cy="101.5" rx="56.5" ry="60.5" fill="#F4F4F1"/>
<ellipse cx="83.638" cy="93.2677" rx="2.638" ry="5.26772" fill="#606060"/>
<ellipse cx="118.638" cy="93.2677" rx="2.638" ry="5.26772" fill="#606060"/>
<ellipse cx="72.5" cy="105.5" rx="8.5" ry="4.5" fill="#F9D4D4" fill-opacity="0.35"/>
<ellipse cx="131.5" cy="105.5" rx="8.5" ry="4.5" fill="#F9D4D4" fill-opacity="0.35"/>
<path d="M113.644 117.701C112.085 114.962 110.067 112.748 107.75 111.238C105.434 109.727 102.884 108.961 100.305 109.002C97.7267 109.042 95.1912 109.888 92.9021 111.471C90.613 113.055 88.6342 115.331 87.1242 118.118L89.0971 120.018C90.3843 117.642 92.0713 115.701 94.0228 114.352C95.9742 113.002 98.1358 112.281 100.334 112.246C102.532 112.212 104.706 112.864 106.681 114.152C108.655 115.44 110.376 117.328 111.705 119.663L113.644 117.701Z" fill="#606060"/>
<ellipse cx="82" cy="98.5" rx="1.5" ry="3" transform="rotate(90 82 98.5)" fill="#50BEFC"/>
<ellipse cx="81.9998" cy="97.75" rx="0.75" ry="1" transform="rotate(90 81.9998 97.75)" fill="#B3E4FF"/>
<ellipse cx="120" cy="98.5" rx="1.5" ry="3" transform="rotate(90 120 98.5)" fill="#50BEFC"/>
<ellipse cx="120" cy="97.75" rx="0.75" ry="1" transform="rotate(90 120 97.75)" fill="#B3E4FF"/>
<ellipse cx="1100.88" cy="254.268" rx="51.8807" ry="5.26772" fill="#606060" fill-opacity="0.2"/>
<ellipse cx="1078.18" cy="233.938" rx="9.5" ry="22" fill="#F4F1F1"/>
<ellipse cx="1118.5" cy="232" rx="9.5" ry="22" fill="#F4F1F1"/>
<ellipse cx="39.5685" cy="12.1157" rx="39.5685" ry="12.1157" transform="matrix(0.866026 -0.5 0.500421 0.865782 1005 148.569)" fill="#606060"/>
<ellipse cx="39.5685" cy="12.1157" rx="39.5685" ry="12.1157" transform="matrix(0.866026 0.5 -0.499579 0.866268 1126.15 106.663)" fill="#606060"/>
<rect x="1044" y="83" width="113" height="151" rx="25" fill="#F4F4F1"/>
<ellipse cx="1100.5" cy="101.5" rx="56.5" ry="60.5" fill="#F4F4F1"/>
<ellipse cx="1083.64" cy="93.2677" rx="2.638" ry="5.26772" fill="#606060"/>
<ellipse cx="1118.64" cy="93.2677" rx="2.638" ry="5.26772" fill="#606060"/>
<ellipse cx="1072.5" cy="105.5" rx="8.5" ry="4.5" fill="#F9D4D4" fill-opacity="0.35"/>
<ellipse cx="1131.5" cy="105.5" rx="8.5" ry="4.5" fill="#F9D4D4" fill-opacity="0.35"/>
<path d="M1113.64 117.701C1112.09 114.962 1110.07 112.748 1107.75 111.238C1105.43 109.727 1102.88 108.961 1100.31 109.002C1097.73 109.042 1095.19 109.888 1092.9 111.471C1090.61 113.055 1088.63 115.331 1087.12 118.118L1089.1 120.018C1090.38 117.642 1092.07 115.701 1094.02 114.352C1095.97 113.002 1098.14 112.281 1100.33 112.246C1102.53 112.212 1104.71 112.864 1106.68 114.152C1108.66 115.44 1110.38 117.328 1111.71 119.663L1113.64 117.701Z" fill="#606060"/>
<ellipse cx="1082" cy="98.5" rx="1.5" ry="3" transform="rotate(90 1082 98.5)" fill="#50BEFC"/>
<ellipse cx="1082" cy="97.75" rx="0.75" ry="1" transform="rotate(90 1082 97.75)" fill="#B3E4FF"/>
<ellipse cx="1120" cy="98.5" rx="1.5" ry="3" transform="rotate(90 1120 98.5)" fill="#50BEFC"/>
<ellipse cx="1120" cy="97.75" rx="0.75" ry="1" transform="rotate(90 1120 97.75)" fill="#B3E4FF"/>
<ellipse cx="302.881" cy="254.268" rx="51.8807" ry="5.26772" fill="#606060" fill-opacity="0.2"/>
<ellipse cx="292.419" cy="235.959" rx="9.5" ry="22" transform="rotate(-40 292.419 235.959)" fill="#F4F1F1"/>
<ellipse cx="333.419" cy="234.959" rx="9.5" ry="22" transform="rotate(-40 333.419 234.959)" fill="#F4F1F1"/>
<ellipse cx="39.5685" cy="12.1157" rx="39.5685" ry="12.1157" transform="matrix(0.766044 -0.642788 0.64316 0.765732 228 152.868)" fill="#606060"/>
<ellipse cx="39.5685" cy="12.1157" rx="39.5685" ry="12.1157" transform="matrix(0.5 0.866026 -0.865782 0.500421 360.8 106.389)" fill="#606060"/>
<rect x="274.221" y="76.3618" width="113" height="151" rx="25" transform="rotate(10 274.221 76.3618)" fill="#F4F4F1"/>
<ellipse cx="326.65" cy="104.392" rx="56.5" ry="60.5" transform="rotate(10 326.65 104.392)" fill="#F4F4F1"/>
<ellipse cx="311.513" cy="94.6458" rx="2.638" ry="5.26772" transform="rotate(10 311.513 94.6458)" fill="#606060"/>
<ellipse cx="343.513" cy="99.6458" rx="2.638" ry="5.26772" transform="rotate(10 343.513 99.6458)" fill="#606060"/>
<ellipse cx="298.273" cy="106.413" rx="8.5" ry="4.5" transform="rotate(10 298.273 106.413)" fill="#F9D4D4" fill-opacity="0.35"/>
<ellipse cx="351.152" cy="114.908" rx="8.5" ry="4.5" transform="rotate(10 351.152 114.908)" fill="#F9D4D4" fill-opacity="0.35"/>
<path d="M336.323 122.716C335.264 119.748 333.66 117.218 331.641 115.328C329.622 113.438 327.244 112.241 324.698 111.833C322.151 111.425 319.508 111.818 316.978 112.98C314.449 114.141 312.105 116.04 310.134 118.522L311.747 120.736C313.427 118.62 315.426 117.001 317.582 116.011C319.738 115.02 321.992 114.686 324.163 115.033C326.334 115.381 328.361 116.401 330.082 118.013C331.803 119.624 333.17 121.781 334.073 124.312L336.323 122.716Z" fill="#606060"/>
<ellipse cx="308.215" cy="103.998" rx="1.5" ry="3" transform="rotate(100 308.215 103.998)" fill="#50BEFC"/>
<ellipse cx="308.345" cy="103.26" rx="0.75" ry="1" transform="rotate(100 308.345 103.26)" fill="#B3E4FF"/>
<ellipse cx="344.215" cy="104.998" rx="1.5" ry="3" transform="rotate(100 344.215 104.998)" fill="#50BEFC"/>
<ellipse cx="344.345" cy="104.26" rx="0.75" ry="1" transform="rotate(100 344.345 104.26)" fill="#B3E4FF"/>
<ellipse cx="899.881" cy="254.268" rx="51.8807" ry="5.26772" fill="#606060" fill-opacity="0.2"/>
<ellipse cx="889.419" cy="235.959" rx="9.5" ry="22" transform="rotate(-40 889.419 235.959)" fill="#F4F1F1"/>
<ellipse cx="930.419" cy="234.959" rx="9.5" ry="22" transform="rotate(-40 930.419 234.959)" fill="#F4F1F1"/>
<ellipse cx="39.5685" cy="12.1157" rx="39.5685" ry="12.1157" transform="matrix(0.766044 -0.642788 0.64316 0.765732 825 152.868)" fill="#606060"/>
<ellipse cx="39.5685" cy="12.1157" rx="39.5685" ry="12.1157" transform="matrix(0.5 0.866026 -0.865782 0.500421 957.8 106.389)" fill="#606060"/>
<rect x="871.221" y="76.3618" width="113" height="151" rx="25" transform="rotate(10 871.221 76.3618)" fill="#F4F4F1"/>
<ellipse cx="923.65" cy="104.392" rx="56.5" ry="60.5" transform="rotate(10 923.65 104.392)" fill="#F4F4F1"/>
<ellipse cx="908.513" cy="94.6458" rx="2.638" ry="5.26772" transform="rotate(10 908.513 94.6458)" fill="#606060"/>
<ellipse cx="940.513" cy="99.6458" rx="2.638" ry="5.26772" transform="rotate(10 940.513 99.6458)" fill="#606060"/>
<ellipse cx="895.273" cy="106.413" rx="8.5" ry="4.5" transform="rotate(10 895.273 106.413)" fill="#F9D4D4" fill-opacity="0.35"/>
<ellipse cx="948.152" cy="114.908" rx="8.5" ry="4.5" transform="rotate(10 948.152 114.908)" fill="#F9D4D4" fill-opacity="0.35"/>
<path d="M933.323 122.716C932.264 119.748 930.66 117.218 928.641 115.328C926.622 113.438 924.244 112.241 921.698 111.833C919.151 111.425 916.508 111.818 913.978 112.98C911.449 114.141 909.105 116.04 907.134 118.522L908.747 120.736C910.427 118.62 912.426 117.001 914.582 116.011C916.738 115.02 918.992 114.686 921.163 115.033C923.334 115.381 925.361 116.401 927.082 118.013C928.803 119.624 930.17 121.781 931.073 124.312L933.323 122.716Z" fill="#606060"/>
<ellipse cx="905.215" cy="103.998" rx="1.5" ry="3" transform="rotate(100 905.215 103.998)" fill="#50BEFC"/>
<ellipse cx="905.345" cy="103.26" rx="0.75" ry="1" transform="rotate(100 905.345 103.26)" fill="#B3E4FF"/>
<ellipse cx="941.215" cy="104.998" rx="1.5" ry="3" transform="rotate(100 941.215 104.998)" fill="#50BEFC"/>
<ellipse cx="941.345" cy="104.26" rx="0.75" ry="1" transform="rotate(100 941.345 104.26)" fill="#B3E4FF"/>
<ellipse cx="499.881" cy="254.268" rx="51.8807" ry="5.26772" fill="#606060" fill-opacity="0.2"/>
<ellipse cx="483.954" cy="241.907" rx="9.5" ry="22" transform="rotate(-65 483.954 241.907)" fill="#F4F1F1"/>
<ellipse cx="535.954" cy="239.907" rx="9.5" ry="22" transform="rotate(-65 535.954 239.907)" fill="#F4F1F1"/>
<ellipse cx="39.5685" cy="12.1157" rx="39.5685" ry="12.1157" transform="matrix(0.766044 -0.642788 0.64316 0.765732 419 157.868)" fill="#606060"/>
<ellipse cx="39.5685" cy="12.1157" rx="39.5685" ry="12.1157" transform="matrix(0.5 0.866026 -0.865782 0.500421 546.979 107)" fill="#606060"/>
<rect x="456.16" y="85.8401" width="113" height="151" rx="25" transform="rotate(5 456.16 85.8401)" fill="#F4F4F1"/>
<ellipse cx="510.833" cy="109.194" rx="56.5" ry="60.5" transform="rotate(5 510.833 109.194)" fill="#F4F4F1"/>
<ellipse cx="494.087" cy="104.478" rx="2.638" ry="5.26772" transform="rotate(5 494.087 104.478)" fill="#606060"/>
<ellipse cx="529.392" cy="107.646" rx="2.638" ry="5.26772" transform="rotate(5 529.392 107.646)" fill="#606060"/>
<ellipse cx="481.86" cy="117.224" rx="8.5" ry="4.5" transform="rotate(5 481.86 117.224)" fill="#F9D4D4" fill-opacity="0.35"/>
<ellipse cx="537.031" cy="122.908" rx="8.5" ry="4.5" transform="rotate(5 537.031 122.908)" fill="#F9D4D4" fill-opacity="0.35"/>
<path d="M522.608 130.252C521.294 127.387 519.476 125.006 517.3 123.299C515.124 121.592 512.65 120.607 510.078 120.423C507.506 120.238 504.906 120.86 502.488 122.238C500.069 123.615 497.9 125.711 496.153 128.356L497.952 130.421C499.442 128.166 501.292 126.379 503.353 125.205C505.415 124.03 507.631 123.5 509.824 123.657C512.017 123.815 514.125 124.654 515.98 126.11C517.835 127.565 519.385 129.595 520.506 132.037L522.608 130.252Z" fill="#606060"/>
<ellipse cx="492.119" cy="118.756" rx="1.5" ry="3" transform="rotate(95 492.119 118.756)" fill="#50BEFC"/>
<ellipse cx="492.185" cy="118.009" rx="0.75" ry="1" transform="rotate(95 492.185 118.009)" fill="#B3E4FF"/>
<ellipse cx="530.094" cy="112.998" rx="1.5" ry="3" transform="rotate(95 530.094 112.998)" fill="#50BEFC"/>
<ellipse cx="530.16" cy="112.251" rx="0.75" ry="1" transform="rotate(95 530.16 112.251)" fill="#B3E4FF"/>
<ellipse cx="700.881" cy="254.268" rx="51.8807" ry="5.26772" fill="#606060" fill-opacity="0.2"/>
<ellipse cx="686.709" cy="245.87" rx="9.5" ry="22" transform="rotate(-75 686.709 245.87)" fill="#F4F1F1"/>
<ellipse cx="745.709" cy="243.87" rx="9.5" ry="22" transform="rotate(-75 745.709 243.87)" fill="#F4F1F1"/>
<ellipse cx="39.5685" cy="12.1157" rx="39.5685" ry="12.1157" transform="matrix(0.766044 -0.642788 0.64316 0.765732 617 159.868)" fill="#606060"/>
<ellipse cx="39.5685" cy="12.1157" rx="39.5685" ry="12.1157" transform="matrix(0.5 0.866026 -0.865782 0.500421 745.979 106)" fill="#606060"/>
<rect x="650.27" y="94.9744" width="113" height="151" rx="25" transform="rotate(2 650.27 94.9744)" fill="#F4F4F1"/>
<ellipse cx="706.09" cy="115.435" rx="56.5" ry="60.5" transform="rotate(2 706.09 115.435)" fill="#F4F4F1"/>
<ellipse cx="689.82" cy="106.357" rx="2.638" ry="5.26772" transform="rotate(2 689.82 106.357)" fill="#606060"/>
<ellipse cx="724.82" cy="107.357" rx="2.638" ry="5.26772" transform="rotate(2 724.82 107.357)" fill="#606060"/>
<ellipse cx="681.652" cy="119.794" rx="8.5" ry="4.5" transform="rotate(2 681.652 119.794)" fill="#F9D4D4" fill-opacity="0.35"/>
<ellipse cx="733.652" cy="122.794" rx="8.5" ry="4.5" transform="rotate(2 733.652 122.794)" fill="#F9D4D4" fill-opacity="0.35"/>
<path d="M718.858 128.73C717.396 125.939 715.455 123.656 713.193 122.065C710.931 120.474 708.409 119.62 705.831 119.571C703.253 119.521 700.689 120.278 698.346 121.78C696.003 123.283 693.946 125.489 692.34 128.222L694.245 130.19C695.614 127.86 697.368 125.979 699.366 124.698C701.363 123.417 703.548 122.772 705.746 122.814C707.944 122.856 710.094 123.585 712.023 124.941C713.951 126.297 715.605 128.243 716.852 130.623L718.858 128.73Z" fill="#606060"/>
<ellipse cx="726.051" cy="112.604" rx="1.5" ry="3" transform="rotate(92 726.051 112.604)" fill="#50BEFC"/>
<ellipse cx="726.077" cy="111.854" rx="0.75" ry="1" transform="rotate(92 726.077 111.854)" fill="#B3E4FF"/>
</svg>
