<svg width="300" height="300" viewBox="0 0 300 300" fill="none" xmlns="http://www.w3.org/2000/svg">
<ellipse cx="147.273" cy="141.818" rx="136.364" ry="136.364" fill="#C5C2D7"/>
<ellipse cx="41.6793" cy="10.1208" rx="41.6793" ry="10.1208" transform="matrix(0.89926 -0.437414 0.470863 0.882206 164.735 193.68)" fill="#606060"/>
<ellipse cx="42.0198" cy="12.3291" rx="42.0198" ry="12.3291" transform="matrix(0.988762 -0.149501 0.163672 0.986515 52.5601 175.136)" fill="#606060"/>
<rect x="86.2124" y="98.3203" width="127.131" height="171.339" rx="25" fill="#F4F1F1"/>
<ellipse cx="149.791" cy="134.908" rx="63.5789" ry="61.5748" fill="#F4F1F1"/>
<path d="M168.187 151.026C168.633 153.051 168.558 155.133 167.965 157.131C167.373 159.129 166.279 160.994 164.757 162.599C163.235 164.204 161.322 165.511 159.149 166.429C156.976 167.347 154.594 167.856 152.168 167.92C149.742 167.983 147.328 167.601 145.092 166.798C142.856 165.996 140.851 164.792 139.216 163.27C137.58 161.748 136.351 159.944 135.615 157.981C134.878 156.018 134.651 153.943 134.948 151.899L151.648 153.648L168.187 151.026Z" fill="#DA6F6F"/>
<ellipse cx="130.147" cy="128.661" rx="2.80436" ry="5.35433" fill="#606060"/>
<ellipse cx="113.321" cy="145.617" rx="6.24672" ry="10.2827" transform="rotate(-90 113.321 145.617)" fill="#F9D4D4" fill-opacity="0.5"/>
<ellipse cx="188.104" cy="145.617" rx="6.24672" ry="10.2827" transform="rotate(-90 188.104 145.617)" fill="#F9D4D4" fill-opacity="0.5"/>
<ellipse cx="171.278" cy="128.661" rx="2.80436" ry="5.35433" fill="#606060"/>
<path d="M300 139.535C300 216.598 232.843 279.07 150 279.07C67.1573 279.07 0 216.598 0 139.535C0 62.4719 67.1573 0 150 0C232.843 0 300 62.4719 300 139.535ZM29.9583 139.535C29.9583 201.207 83.7028 251.202 150 251.202C216.297 251.202 270.042 201.207 270.042 139.535C270.042 77.8631 216.297 27.8682 150 27.8682C83.7028 27.8682 29.9583 77.8631 29.9583 139.535Z" fill="#FCD923"/>
</svg>
