<svg width="1800" height="300" viewBox="0 0 1800 300" fill="none" xmlns="http://www.w3.org/2000/svg">
<ellipse cx="147.881" cy="253.268" rx="51.8807" ry="5.26772" fill="#606060" fill-opacity="0.2"/>
<ellipse cx="125.183" cy="232.938" rx="9.5" ry="22" transform="rotate(26 125.183 232.938)" fill="#F4F1F1"/>
<ellipse cx="165.5" cy="231" rx="9.5" ry="22" fill="#F4F1F1"/>
<ellipse cx="39.5685" cy="12.1157" rx="39.5685" ry="12.1157" transform="matrix(0.906234 0.422776 -0.422336 0.906439 65.2339 119)" fill="#606060"/>
<rect x="92" y="82" width="113" height="151" rx="25" fill="#F4F4F1"/>
<ellipse cx="148.5" cy="100.5" rx="56.5" ry="60.5" fill="#F4F4F1"/>
<ellipse cx="117.157" cy="109.114" rx="6.14567" ry="9.67267" transform="rotate(-90 117.157 109.114)" fill="#F9D4D4" fill-opacity="0.35"/>
<path d="M107 123.5C107 122.252 106.612 121.017 105.858 119.865C105.104 118.712 103.999 117.665 102.607 116.782C101.214 115.9 99.5601 115.201 97.7403 114.723C95.9204 114.246 93.9698 114 92 114L92 123.5L107 123.5Z" fill="#DA6F6F"/>
<ellipse cx="39.5685" cy="12.1157" rx="39.5685" ry="12.1157" transform="matrix(0.965926 -0.258819 0.259288 0.9658 60 153.482)" fill="#606060"/>
<line x1="95.8915" y1="87.5119" x2="113.892" y2="83.5119" stroke="black"/>
<ellipse cx="100.638" cy="98.2677" rx="2.638" ry="5.26772" fill="#606060"/>
<ellipse cx="463.881" cy="255.268" rx="51.8807" ry="5.26772" fill="#606060" fill-opacity="0.2"/>
<ellipse cx="441.183" cy="234.938" rx="9.5" ry="22" transform="rotate(11 441.183 234.938)" fill="#F4F1F1"/>
<ellipse cx="481.5" cy="233" rx="9.5" ry="22" transform="rotate(11 481.5 233)" fill="#F4F1F1"/>
<ellipse cx="39.5685" cy="12.1157" rx="39.5685" ry="12.1157" transform="matrix(0.906234 0.422776 -0.422336 0.906439 388.234 114)" fill="#606060"/>
<rect x="408" y="79" width="113" height="154" rx="25" fill="#F4F4F1"/>
<ellipse cx="464.5" cy="100.5" rx="56.5" ry="60.5" fill="#F4F4F1"/>
<path d="M421 124.5C421 123.252 420.664 122.017 420.01 120.865C419.357 119.712 418.4 118.665 417.192 117.782C415.985 116.9 414.552 116.201 412.975 115.723C411.398 115.246 409.707 115 408 115L408 124.5L421 124.5Z" fill="#DA6F6F"/>
<ellipse cx="39.5685" cy="12.1157" rx="39.5685" ry="12.1157" transform="matrix(0.987688 -0.156434 0.156914 0.987612 374 146.38)" fill="#606060"/>
<line x1="416.948" y1="87.5027" x2="435.948" y2="85.5027" stroke="black"/>
<ellipse cx="416.638" cy="100.268" rx="2.638" ry="5.26772" fill="#606060"/>
<ellipse cx="765.678" cy="255.268" rx="51.8807" ry="5.26772" fill="#606060" fill-opacity="0.2"/>
<ellipse cx="742.981" cy="234.938" rx="9.5" ry="22" transform="rotate(3 742.981 234.938)" fill="#F4F1F1"/>
<ellipse cx="783.297" cy="233" rx="9.5" ry="22" transform="rotate(-9 783.297 233)" fill="#F4F1F1"/>
<ellipse cx="39.5685" cy="12.1157" rx="39.5685" ry="12.1157" transform="matrix(0.956254 0.292539 -0.292074 0.956396 686.474 118.548)" fill="#606060"/>
<rect x="709.797" y="79" width="113" height="154" rx="25" fill="#F4F4F1"/>
<ellipse cx="766.297" cy="100.5" rx="56.5" ry="60.5" fill="#F4F4F1"/>
<path d="M709.797 125C711.505 125 713.195 124.845 714.772 124.543C716.349 124.242 717.783 123.8 718.99 123.243C720.197 122.685 721.154 122.024 721.808 121.296C722.461 120.568 722.797 119.788 722.797 119C722.797 118.212 722.461 117.432 721.808 116.704C721.154 115.976 720.197 115.315 718.99 114.757C717.783 114.2 716.349 113.758 714.772 113.457C713.195 113.155 711.505 113 709.797 113L709.797 119L709.797 125Z" fill="#DA6F6F"/>
<ellipse cx="39.5685" cy="12.1157" rx="39.5685" ry="12.1157" transform="matrix(0.999848 -0.0174524 0.017938 0.999839 677 140.732)" fill="#606060"/>
<line x1="715.745" y1="87.5027" x2="734.745" y2="85.5027" stroke="black"/>
<ellipse cx="718.435" cy="100.268" rx="2.638" ry="5.26772" fill="#606060"/>
<ellipse cx="738.673" cy="110.146" rx="6.14567" ry="9.67267" transform="rotate(-90 738.673 110.146)" fill="#F9D4D4" fill-opacity="0.35"/>
<ellipse cx="1063.88" cy="255.268" rx="51.8807" ry="5.26772" fill="#606060" fill-opacity="0.2"/>
<ellipse cx="1041.18" cy="234.938" rx="9.5" ry="22" transform="rotate(11 1041.18 234.938)" fill="#F4F1F1"/>
<ellipse cx="1081.5" cy="233" rx="9.5" ry="22" transform="rotate(11 1081.5 233)" fill="#F4F1F1"/>
<ellipse cx="39.5685" cy="12.1157" rx="39.5685" ry="12.1157" transform="matrix(0.906234 0.422776 -0.422336 0.906439 988.234 114)" fill="#606060"/>
<rect x="1008" y="79" width="113" height="154" rx="25" fill="#F4F4F1"/>
<ellipse cx="1064.5" cy="100.5" rx="56.5" ry="60.5" fill="#F4F4F1"/>
<path d="M1021 124.5C1021 123.252 1020.66 122.017 1020.01 120.865C1019.36 119.712 1018.4 118.665 1017.19 117.782C1015.99 116.9 1014.55 116.201 1012.97 115.723C1011.4 115.246 1009.71 115 1008 115L1008 124.5L1021 124.5Z" fill="#DA6F6F"/>
<ellipse cx="39.5685" cy="12.1157" rx="39.5685" ry="12.1157" transform="matrix(0.987688 -0.156434 0.156914 0.987612 974 146.38)" fill="#606060"/>
<line x1="1016.95" y1="87.5027" x2="1035.95" y2="85.5027" stroke="black"/>
<ellipse cx="1016.64" cy="100.268" rx="2.638" ry="5.26772" fill="#606060"/>
<ellipse cx="1037.67" cy="112.146" rx="6.14567" ry="9.67267" transform="rotate(-90 1037.67 112.146)" fill="#F9D4D4" fill-opacity="0.35"/>
<ellipse cx="1347.88" cy="253.268" rx="51.8807" ry="5.26772" fill="#606060" fill-opacity="0.2"/>
<ellipse cx="1325.18" cy="232.938" rx="9.5" ry="22" transform="rotate(26 1325.18 232.938)" fill="#F4F1F1"/>
<ellipse cx="1365.5" cy="231" rx="9.5" ry="22" fill="#F4F1F1"/>
<ellipse cx="39.5685" cy="12.1157" rx="39.5685" ry="12.1157" transform="matrix(0.906234 0.422776 -0.422336 0.906439 1265.23 119)" fill="#606060"/>
<rect x="1292" y="82" width="113" height="151" rx="25" fill="#F4F4F1"/>
<ellipse cx="1348.5" cy="100.5" rx="56.5" ry="60.5" fill="#F4F4F1"/>
<ellipse cx="1317.16" cy="109.114" rx="6.14567" ry="9.67267" transform="rotate(-90 1317.16 109.114)" fill="#F9D4D4" fill-opacity="0.35"/>
<path d="M1307 123.5C1307 122.252 1306.61 121.017 1305.86 119.865C1305.1 118.712 1304 117.665 1302.61 116.782C1301.21 115.9 1299.56 115.201 1297.74 114.723C1295.92 114.246 1293.97 114 1292 114L1292 123.5L1307 123.5Z" fill="#DA6F6F"/>
<ellipse cx="39.5685" cy="12.1157" rx="39.5685" ry="12.1157" transform="matrix(0.965926 -0.258819 0.259288 0.9658 1260 153.482)" fill="#606060"/>
<line x1="1295.89" y1="87.5119" x2="1313.89" y2="83.5119" stroke="black"/>
<ellipse cx="1300.64" cy="98.2677" rx="2.638" ry="5.26772" fill="#606060"/>
<ellipse cx="1665.68" cy="255.268" rx="51.8807" ry="5.26772" fill="#606060" fill-opacity="0.2"/>
<ellipse cx="1642.98" cy="234.938" rx="9.5" ry="22" transform="rotate(3 1642.98 234.938)" fill="#F4F1F1"/>
<ellipse cx="1683.3" cy="233" rx="9.5" ry="22" transform="rotate(-9 1683.3 233)" fill="#F4F1F1"/>
<ellipse cx="39.5685" cy="12.1157" rx="39.5685" ry="12.1157" transform="matrix(0.956254 0.292539 -0.292074 0.956396 1586.47 118.548)" fill="#606060"/>
<rect x="1609.8" y="79" width="113" height="154" rx="25" fill="#F4F4F1"/>
<ellipse cx="1666.3" cy="100.5" rx="56.5" ry="60.5" fill="#F4F4F1"/>
<path d="M1609.8 125C1611.5 125 1613.2 124.845 1614.77 124.543C1616.35 124.242 1617.78 123.8 1618.99 123.243C1620.2 122.685 1621.15 122.024 1621.81 121.296C1622.46 120.568 1622.8 119.788 1622.8 119C1622.8 118.212 1622.46 117.432 1621.81 116.704C1621.15 115.976 1620.2 115.315 1618.99 114.757C1617.78 114.2 1616.35 113.758 1614.77 113.457C1613.2 113.155 1611.5 113 1609.8 113L1609.8 119L1609.8 125Z" fill="#DA6F6F"/>
<ellipse cx="39.5685" cy="12.1157" rx="39.5685" ry="12.1157" transform="matrix(0.999848 -0.0174524 0.017938 0.999839 1577 140.732)" fill="#606060"/>
<line x1="1615.75" y1="87.5027" x2="1634.74" y2="85.5027" stroke="black"/>
<ellipse cx="1618.44" cy="100.268" rx="2.638" ry="5.26772" fill="#606060"/>
<ellipse cx="1638.67" cy="110.146" rx="6.14567" ry="9.67267" transform="rotate(-90 1638.67 110.146)" fill="#F9D4D4" fill-opacity="0.35"/>
</svg>
