<svg width="811" height="94" viewBox="0 0 811 94" fill="none" xmlns="http://www.w3.org/2000/svg">
<g filter="url(#filter0_d_212_2601)">
<path d="M84.2938 9.34766L81.5594 29.9531C80.6154 29.6927 79.6714 29.5137 78.7274 29.416C77.7834 29.3184 76.8394 29.2695 75.8954 29.2695C73.4865 29.2695 71.1916 29.5951 69.0106 30.2461C66.8296 30.8646 64.8928 31.8249 63.2001 33.127C61.5399 34.429 60.2053 36.0566 59.1962 38.0098C58.2196 39.9629 57.7313 42.2578 57.7313 44.8945C57.7313 46.5872 57.9917 48.0521 58.5126 49.2891C59.0659 50.526 59.8309 51.5514 60.8075 52.3652C61.784 53.179 62.9396 53.7812 64.2743 54.1719C65.6089 54.5625 67.0738 54.7578 68.6688 54.7578C69.8732 54.7578 71.1265 54.6276 72.4286 54.3672C73.7307 54.1068 75.0165 53.765 76.286 53.3418C77.5555 52.9186 78.7925 52.4303 79.9969 51.877C81.2014 51.3236 82.3081 50.7539 83.3172 50.168L81.3641 73.1172C80.0946 73.7682 78.7111 74.3542 77.2137 74.875C75.7489 75.3633 74.2352 75.8027 72.6727 76.1934C71.1102 76.5514 69.5477 76.8281 67.9852 77.0234C66.4227 77.2188 64.9253 77.3164 63.493 77.3164C59.3589 77.3164 55.5015 76.5514 51.9208 75.0215C48.34 73.4915 45.2313 71.3919 42.5946 68.7227C39.9579 66.0534 37.8745 62.9121 36.3446 59.2988C34.8472 55.653 34.0985 51.7305 34.0985 47.5312C34.0985 41.9648 34.896 36.724 36.4911 31.8086C38.0861 26.8607 40.4299 22.5312 43.5223 18.8203C46.6148 15.1094 50.4396 12.1797 54.9969 10.0312C59.5868 7.88281 64.8602 6.80859 70.8172 6.80859C73.0633 6.80859 75.3583 6.98763 77.702 7.3457C80.0783 7.70378 82.2756 8.37109 84.2938 9.34766ZM206.315 40.5977C206.315 43.5599 205.973 46.4245 205.29 49.1914C204.606 51.9258 203.613 54.4974 202.311 56.9062C201.042 59.3151 199.479 61.5286 197.624 63.5469C195.801 65.5326 193.734 67.2415 191.423 68.6738C189.144 70.1061 186.654 71.2292 183.952 72.043C181.25 72.8242 178.386 73.2148 175.358 73.2148C172.429 73.2148 169.629 72.8405 166.96 72.0918C164.323 71.3431 161.849 70.3014 159.538 68.9668C157.227 67.5996 155.127 65.972 153.239 64.084C151.384 62.1634 149.789 60.0475 148.454 57.7363C147.152 55.3926 146.126 52.8861 145.378 50.2168C144.662 47.5475 144.304 44.7643 144.304 41.8672C144.304 39.0352 144.645 36.2682 145.329 33.5664C146.013 30.832 146.989 28.2604 148.259 25.8516C149.561 23.4427 151.123 21.2292 152.946 19.2109C154.769 17.1927 156.804 15.4512 159.05 13.9863C161.328 12.5215 163.786 11.3822 166.423 10.5684C169.059 9.75456 171.843 9.34766 174.772 9.34766C179.492 9.34766 183.789 10.0801 187.663 11.5449C191.569 13.0098 194.89 15.1094 197.624 17.8438C200.391 20.5456 202.523 23.8333 204.02 27.707C205.55 31.5482 206.315 35.8451 206.315 40.5977ZM184.636 41.8672C184.636 40.4674 184.424 39.1165 184.001 37.8145C183.61 36.4798 183.024 35.3079 182.243 34.2988C181.462 33.2572 180.485 32.4271 179.313 31.8086C178.174 31.1576 176.856 30.832 175.358 30.832C173.828 30.832 172.461 31.1087 171.257 31.6621C170.052 32.2155 169.011 32.9805 168.132 33.957C167.285 34.901 166.634 36.0241 166.179 37.3262C165.723 38.5957 165.495 39.9466 165.495 41.3789C165.495 42.7461 165.69 44.1133 166.081 45.4805C166.472 46.8477 167.057 48.0846 167.839 49.1914C168.62 50.2982 169.58 51.1934 170.72 51.877C171.891 52.5605 173.242 52.9023 174.772 52.9023C176.302 52.9023 177.669 52.6094 178.874 52.0234C180.111 51.4049 181.153 50.5911 181.999 49.582C182.845 48.5404 183.496 47.3522 183.952 46.0176C184.408 44.6829 184.636 43.2995 184.636 41.8672ZM269.255 14.9141L247.673 40.5977L267.497 74.1914L244.841 78.1953L229.997 58.0781L229.216 77.2188L208.903 78L210.466 8.07812L233.22 9.34766L231.462 29.4648L245.622 9.05469L269.255 14.9141ZM294.987 9.25L291.569 75.7539L270.964 76.8281L269.011 10.6172L294.987 9.25ZM353.483 38.5469C353.483 41.3789 353.288 44.2109 352.897 47.043C347.331 47.401 341.797 47.987 336.296 48.8008C330.794 49.582 325.293 50.3633 319.792 51.1445C320.638 53.4883 321.957 55.36 323.747 56.7598C325.57 58.1595 327.735 58.8594 330.241 58.8594C331.543 58.8594 332.959 58.6152 334.489 58.127C336.052 57.6387 337.598 57.0365 339.128 56.3203C340.658 55.5716 342.123 54.7741 343.522 53.9277C344.922 53.0814 346.127 52.3164 347.136 51.6328L344.792 73.8008C343.522 74.7773 342.139 75.6074 340.641 76.291C339.177 76.9746 337.647 77.528 336.052 77.9512C334.457 78.3743 332.845 78.6836 331.218 78.8789C329.59 79.0742 327.995 79.1719 326.432 79.1719C323.21 79.1719 320.264 78.7324 317.595 77.8535C314.925 76.9746 312.5 75.7539 310.319 74.1914C308.171 72.5964 306.283 70.7246 304.655 68.5762C303.028 66.4277 301.677 64.084 300.602 61.5449C299.528 59.0059 298.714 56.3203 298.161 53.4883C297.608 50.6562 297.331 47.7917 297.331 44.8945C297.331 41.8672 297.608 38.8398 298.161 35.8125C298.714 32.7852 299.544 29.8717 300.651 27.0723C301.791 24.2728 303.207 21.6849 304.899 19.3086C306.625 16.8997 308.627 14.8001 310.905 13.0098C313.184 11.2194 315.755 9.81966 318.62 8.81055C321.517 7.80143 324.707 7.29688 328.19 7.29688C331.087 7.29688 333.724 7.70378 336.1 8.51758C338.509 9.29883 340.641 10.4056 342.497 11.8379C344.385 13.2376 346.013 14.9141 347.38 16.8672C348.78 18.8203 349.919 20.9688 350.798 23.3125C351.709 25.6237 352.377 28.0814 352.8 30.6855C353.255 33.2572 353.483 35.8776 353.483 38.5469ZM333.952 36.0078C333.952 35.0964 333.854 34.1686 333.659 33.2246C333.464 32.248 333.138 31.3691 332.682 30.5879C332.259 29.8066 331.69 29.1719 330.974 28.6836C330.257 28.1628 329.362 27.9023 328.288 27.9023C326.986 27.9023 325.83 28.2604 324.821 28.9766C323.845 29.6602 322.998 30.5391 322.282 31.6133C321.566 32.6549 320.98 33.7943 320.524 35.0312C320.069 36.2682 319.727 37.4076 319.499 38.4492L333.952 37.082V36.0078Z" fill="white"/>
</g>
<path d="M159.761 38.8063L155.814 39.567C154.501 39.8201 153.181 39.1618 152.637 37.9823L148.409 28.8157C148.051 28.0396 147.342 27.4659 146.487 27.2598L144.285 26.7293C143.01 26.4223 142.117 25.319 142.117 24.0531V9.34431C142.117 8.65697 141.85 7.99431 141.37 7.48619L136.052 1.86338C131.258 0.400408 126.09 -0.252248 120.718 0.0886891C100.068 1.39963 83.3395 17.5871 82.0795 37.4923C80.6093 60.7201 99.7226 80.0001 123.509 80.0001C146.197 80.0001 164.621 62.4571 165 40.6812L161.602 39.0441C161.033 38.7696 160.385 38.686 159.761 38.8063Z" fill="#FCD976"/>
<path d="M136.391 67.5856C136.139 67.5856 135.891 67.5717 135.64 67.5673C134.067 69.2674 131.784 70.3442 129.234 70.3442C125.479 70.3442 122.295 68.0176 121.128 64.782C115.992 62.8231 111.359 59.9087 107.465 56.2606C106.876 56.4317 106.264 56.551 105.617 56.551C102.06 56.551 99.176 53.7721 99.176 50.3442C99.176 49.147 99.5444 48.039 100.154 47.0909C100.11 47.0157 100.064 46.9428 100.02 46.8673C95.5524 46.5754 92.0194 42.9996 92.0194 38.6201C92.0194 36.039 93.2462 33.7351 95.1678 32.2173C94.9857 30.6968 94.8821 29.1534 94.8821 27.5856C94.8821 19.7186 97.2484 12.3884 101.319 6.20215C89.7115 13.294 82.0001 25.7751 82.0001 39.9995C82.0001 62.0909 100.584 79.9995 123.509 79.9995C138.27 79.9995 151.222 72.5684 158.581 61.3831C152.162 65.3054 144.555 67.5856 136.391 67.5856Z" fill="#FDBF5A"/>
<path d="M114.205 33.1036C116.182 33.1036 117.784 31.5597 117.784 29.6553C117.784 27.7509 116.182 26.207 114.205 26.207C112.229 26.207 110.627 27.7509 110.627 29.6553C110.627 31.5597 112.229 33.1036 114.205 33.1036Z" fill="#FDBF5A"/>
<path d="M152.136 55.8619C154.112 55.8619 155.714 54.318 155.714 52.4136C155.714 50.5092 154.112 48.9653 152.136 48.9653C150.159 48.9653 148.557 50.5092 148.557 52.4136C148.557 54.318 150.159 55.8619 152.136 55.8619Z" fill="#FDBF5A"/>
<path d="M119.573 55.8622C120.956 55.8622 122.078 54.7815 122.078 53.4484C122.078 52.1153 120.956 51.0347 119.573 51.0347C118.189 51.0347 117.068 52.1153 117.068 53.4484C117.068 54.7815 118.189 55.8622 119.573 55.8622Z" fill="#FDBF5A"/>
<path d="M138.896 33.7933C140.279 33.7933 141.401 32.7126 141.401 31.3796C141.401 30.0465 140.279 28.9658 138.896 28.9658C137.512 28.9658 136.391 30.0465 136.391 31.3796C136.391 32.7126 137.512 33.7933 138.896 33.7933Z" fill="#FDBF5A"/>
<path d="M128.877 12.4139C130.26 12.4139 131.381 11.3333 131.381 10.0002C131.381 8.6671 130.26 7.58643 128.877 7.58643C127.493 7.58643 126.372 8.6671 126.372 10.0002C126.372 11.3333 127.493 12.4139 128.877 12.4139Z" fill="#FDBF5A"/>
<path d="M121.426 35.529L119.771 38.1866C118.782 39.775 119.667 41.8329 121.532 42.2821L126.457 43.4686C127.991 43.8382 129.545 42.9396 129.929 41.4615L130.492 39.2896C130.606 38.8502 130.606 38.3908 130.492 37.9515L129.896 35.655C129.526 34.2265 128.056 33.3302 126.558 33.619L123.319 34.243C122.529 34.3957 121.841 34.8625 121.426 35.529Z" fill="#C47544"/>
<path d="M129.688 52.6053L127.962 55.3768C127.104 56.7548 127.645 58.545 129.137 59.2636L134.63 61.9106C136.268 62.7 138.244 61.8243 138.688 60.1123L139.254 57.9311L139.915 55.3812C140.327 53.7943 139.223 52.2126 137.543 51.9812L132.547 51.2934C131.407 51.1365 130.28 51.6536 129.688 52.6053Z" fill="#C47544"/>
<path d="M99.5697 36.1495L97.4636 39.5321C96.7878 40.6176 96.9653 42.007 97.8941 42.9021L101.209 46.0963C102.415 47.259 104.402 47.1529 105.468 45.869L108.31 42.446C108.868 41.7738 109.068 40.889 108.852 40.0537L108.204 37.5555C107.935 36.5212 107.073 35.7287 105.988 35.5195L102.586 34.8638C101.399 34.6351 100.192 35.1498 99.5697 36.1495Z" fill="#C47544"/>
<path d="M111.224 13.7525L109.6 16.3609C108.658 17.8742 109.412 19.8392 111.15 20.3973L114.674 21.5293C115.703 21.8596 116.837 21.6017 117.603 20.8629L119.5 19.035C120.211 18.3498 120.497 17.3553 120.253 16.4153L119.757 14.5029C119.439 13.2746 118.294 12.4131 116.98 12.4131H113.679C112.674 12.4132 111.742 12.9217 111.224 13.7525Z" fill="#C47544"/>
<path d="M145.798 35.0735L144.141 36.6702C143.023 37.7474 143.023 39.4941 144.141 40.5715L144.951 41.3529C145.823 42.1926 147.154 42.4007 148.256 41.8696L152.945 39.6105C154.145 39.0323 154.767 37.7285 154.442 36.4741L154.229 35.6555C153.859 34.2269 152.389 33.3307 150.891 33.6194L147.261 34.3191C146.706 34.4257 146.197 34.6883 145.798 35.0735Z" fill="#C47544"/>
<path d="M135.153 15.3839L133.252 17.8267C132.554 18.7239 132.489 19.9395 133.088 20.9012L134.847 23.7264C135.687 25.077 137.529 25.4761 138.889 24.6025L142.461 22.3076C143.829 21.4292 144.149 19.6241 143.163 18.3572L141.222 15.8622C140.872 15.4133 140.389 15.0776 139.837 14.9003L138.349 14.4222C137.18 14.0464 135.892 14.4339 135.153 15.3839Z" fill="#C47544"/>
<path d="M110.656 58.9661L108.787 61.2177C107.587 62.6631 108.176 64.8147 109.96 65.5024L112.47 66.4702C113.153 66.7333 113.914 66.7333 114.597 66.4702L117.414 65.3839C119.103 64.7333 119.742 62.7503 118.733 61.2924L118.249 60.5928C117.973 60.1933 117.593 59.8705 117.148 59.6556L114.172 58.222C112.965 57.6403 111.5 57.9505 110.656 58.9661Z" fill="#C47544"/>
<path d="M104.761 45.7688L101.446 42.5747C100.517 41.6797 100.34 40.2902 101.016 39.2049L103.122 35.8222C103.301 35.5338 103.539 35.2996 103.801 35.0983L102.586 34.8643C101.4 34.6357 100.192 35.1503 99.5697 36.1499L97.4636 39.5325C96.7878 40.618 96.9653 42.0074 97.8941 42.9025L101.209 46.0966C102.327 47.1743 104.107 47.1483 105.211 46.1183C105.053 46.0172 104.9 45.9036 104.761 45.7688Z" fill="#663D29"/>
<path d="M117.541 20.5471L114.017 19.4153C112.28 18.8571 111.525 16.8921 112.467 15.3789L114.091 12.7704C114.174 12.6376 114.283 12.5284 114.385 12.4131H113.679C112.673 12.4131 111.741 12.9215 111.224 13.7525L109.6 16.3607C108.658 17.874 109.412 19.839 111.149 20.3971L114.674 21.5292C115.702 21.8595 116.836 21.6015 117.603 20.8628L117.87 20.6057C117.76 20.5839 117.649 20.5818 117.541 20.5471Z" fill="#663D29"/>
<path d="M129.173 42.6753L124.248 41.4888C122.383 41.0394 121.498 38.9817 122.487 37.3933L124.142 34.7356C124.339 34.4192 124.601 34.1522 124.903 33.938L123.319 34.2431C122.529 34.3955 121.841 34.8625 121.426 35.5291L119.771 38.1867C118.782 39.7752 119.667 41.833 121.532 42.2822L126.457 43.4688C127.495 43.7188 128.532 43.3794 129.22 42.682C129.204 42.6783 129.189 42.6791 129.173 42.6753Z" fill="#663D29"/>
<path d="M137.521 23.4874L135.761 20.6623C135.163 19.7006 135.228 18.4853 135.926 17.5878L137.827 15.1451C138.035 14.8774 138.294 14.6678 138.574 14.4939L138.348 14.4215C137.179 14.046 135.892 14.4335 135.153 15.3834L133.252 17.826C132.554 18.7234 132.489 19.9389 133.087 20.9006L134.846 23.7257C135.685 25.0718 137.516 25.471 138.875 24.609C138.33 24.3907 137.849 24.0142 137.521 23.4874Z" fill="#663D29"/>
<path d="M147.249 41.1687C146.131 40.0913 146.131 38.3447 147.249 37.2674L148.906 35.6707C149.305 35.2857 149.814 35.023 150.369 34.9163L153.424 34.3274C152.771 33.7287 151.837 33.4363 150.891 33.6188L147.26 34.3185C146.706 34.4254 146.197 34.6879 145.798 35.0729L144.141 36.6696C143.023 37.7469 143.023 39.4935 144.141 40.5708L144.951 41.3522C145.769 42.1399 146.985 42.3463 148.043 41.934L147.249 41.1687Z" fill="#663D29"/>
<path d="M132.683 59.0319C131.191 58.3133 130.65 56.5231 131.508 55.1452L133.234 52.3738C133.46 52.0105 133.78 51.735 134.133 51.5117L132.547 51.2935C131.407 51.1364 130.28 51.6533 129.688 52.605L127.962 55.3766C127.104 56.7546 127.645 58.5447 129.137 59.2633L134.63 61.9103C135.725 62.438 136.961 62.2102 137.799 61.4974L132.683 59.0319Z" fill="#663D29"/>
<path d="M115.333 66.0094L112.822 65.0416C111.039 64.3542 110.45 62.2023 111.65 60.7569L113.519 58.5053C113.638 58.3623 113.771 58.2373 113.912 58.123C112.76 57.6978 111.44 58.0219 110.656 58.9664L108.787 61.218C107.587 62.6634 108.176 64.815 109.96 65.5026L112.47 66.4705C113.153 66.7336 113.914 66.7336 114.597 66.4705L115.598 66.0844C115.51 66.0595 115.419 66.0426 115.333 66.0094Z" fill="#663D29"/>
<path d="M93.449 56.5501C93.2345 56.5501 93.0156 56.5031 92.8103 56.4046C92.1031 56.0638 91.8164 55.2356 92.1702 54.554L93.6016 51.7954C93.9554 51.1138 94.8128 50.8404 95.522 51.1785C96.2293 51.5195 96.516 52.3476 96.1622 53.0291L94.7308 55.7877C94.4799 56.2712 93.9747 56.5501 93.449 56.5501Z" fill="#C98850"/>
<path d="M119.215 74.4829H117.784C116.993 74.4829 116.352 73.866 116.352 73.1035C116.352 72.3412 116.993 71.7241 117.784 71.7241H119.215C120.005 71.7241 120.646 72.341 120.646 73.1035C120.646 73.866 120.005 74.4829 119.215 74.4829Z" fill="#925F4A"/>
<path d="M113.488 48.2759C113.274 48.2759 113.055 48.2289 112.849 48.1304C112.142 47.7895 111.856 46.9612 112.209 46.2798L113.641 43.5212C113.994 42.8411 114.851 42.5662 115.561 42.9043C116.268 43.2453 116.555 44.0734 116.201 44.755L114.77 47.5136C114.519 47.9972 114.014 48.2759 113.488 48.2759Z" fill="#C98850"/>
<path d="M104.9 26.2074C104.686 26.2074 104.467 26.1603 104.262 26.0619L101.399 24.6825C100.692 24.3416 100.405 23.5135 100.759 22.8319C101.112 22.1517 101.97 21.8755 102.679 22.215L105.542 23.5942C106.249 23.9352 106.536 24.7633 106.182 25.4449C105.931 25.9285 105.426 26.2074 104.9 26.2074Z" fill="#925F4A"/>
<path d="M122.078 6.89693H119.215C118.425 6.89693 117.784 6.28006 117.784 5.51756C117.784 4.75506 118.425 4.13818 119.215 4.13818H122.078C122.868 4.13818 123.509 4.75506 123.509 5.51756C123.509 6.28006 122.868 6.89693 122.078 6.89693Z" fill="#925F4A"/>
<path d="M127.804 27.5866C127.279 27.5866 126.774 27.3078 126.523 26.8242L125.091 24.0656C124.738 23.3841 125.024 22.5556 125.731 22.215C126.44 21.8755 127.299 22.1517 127.652 22.8319L129.083 25.5905C129.437 26.2721 129.15 27.1005 128.443 27.4411C128.238 27.5395 128.019 27.5866 127.804 27.5866Z" fill="#C98850"/>
<path d="M88.5233 34.3401C88.3308 34.2487 88.1562 34.1132 88.0169 33.9375C87.5386 33.3306 87.6617 32.4654 88.2916 32.0046L90.8408 30.1396C91.4701 29.6786 92.3672 29.7982 92.8465 30.4043C93.3249 31.0112 93.2018 31.8764 92.5719 32.3371L90.0228 34.202C89.5758 34.5289 88.9946 34.5639 88.5233 34.3401Z" fill="#925F4A"/>
<path d="M142.116 49.6554C141.75 49.6554 141.384 49.5207 141.105 49.2513L138.242 46.4927C137.683 45.954 137.683 45.081 138.242 44.5422C138.801 44.0035 139.707 44.0035 140.266 44.5422L143.129 47.3008C143.688 47.8396 143.688 48.7126 143.129 49.2513C142.849 49.5207 142.483 49.6554 142.116 49.6554Z" fill="#925F4A"/>
<path d="M144.979 63.448C144.613 63.448 144.247 63.3133 143.967 63.044C143.408 62.5052 143.408 61.6322 143.967 61.0935L145.399 59.7141C145.958 59.1754 146.864 59.1754 147.423 59.7141C147.982 60.2529 147.982 61.1258 147.423 61.6646L145.991 63.044C145.712 63.3133 145.345 63.448 144.979 63.448Z" fill="#C98850"/>
<path d="M147.842 5.51756V8.99756C147.842 9.97349 148.864 10.6407 149.805 10.2782L154.099 8.62303C154.642 8.4135 154.998 7.90631 154.998 7.3424V5.51756C154.998 4.75584 154.357 4.13818 153.567 4.13818H149.273C148.483 4.13818 147.842 4.75584 147.842 5.51756Z" fill="#FCD976"/>
<path d="M150.902 16.3913L149.988 22.5529C149.774 24.0022 150.771 25.361 152.261 25.648L154.882 26.1532C156.02 26.3725 157.182 25.9085 157.826 24.9783L158.812 23.5533C159.322 22.815 159.433 21.8852 159.11 21.0546L156.124 13.381C155.752 12.4266 154.482 12.1615 153.734 12.8822L151.712 14.8308C151.274 15.2529 150.99 15.8005 150.902 16.3913Z" fill="#FCD976"/>
<path d="M158.078 23.7025L155.456 23.1973C153.967 22.9101 152.969 21.5514 153.184 20.1022L154.097 13.9408C154.179 13.3912 154.445 12.8894 154.832 12.4809C154.443 12.462 154.044 12.5825 153.734 12.8812L151.712 14.83C151.274 15.252 150.989 15.7997 150.902 16.3904L149.989 22.5519C149.774 24.0014 150.772 25.36 152.261 25.647L154.883 26.1522C156.02 26.3712 157.182 25.9075 157.826 24.9773L158.688 23.7308C158.485 23.7347 158.282 23.742 158.078 23.7025Z" fill="#FDBF5A"/>
<path d="M152.667 7.51943C151.727 7.88178 150.704 7.21459 150.704 6.23881V4.13818H149.273C148.483 4.13818 147.842 4.75584 147.842 5.51756V8.99756C147.842 9.97349 148.864 10.6407 149.804 10.2782L154.099 8.62303C154.642 8.4135 154.998 7.90646 154.998 7.3424V6.621L152.667 7.51943Z" fill="#FDBF5A"/>
<path d="M158.575 30.081L157.729 31.7116C157.527 32.0999 157.527 32.5569 157.729 32.9452L158.115 33.6896C158.5 34.4316 159.473 34.6807 160.189 34.2205L162.496 32.7382C162.895 32.4822 163.134 32.0516 163.134 31.5905V30.1044C163.134 29.163 162.177 28.4982 161.25 28.796L159.402 29.3894C159.042 29.5049 158.745 29.7537 158.575 30.081Z" fill="#FDBF5A"/>
<g filter="url(#filter1_d_212_2601)">
<path d="M454.758 8.80859L450.266 80.4883L428 81.4648L428.195 43.6719L418.137 74.1406H409.543L401.828 46.8945L401.73 78.5352L379.172 79.2188L380.148 11.7383L405.246 10.7617L415.207 43.0859L428.488 8.80859H454.758ZM518.039 45.5273C518.039 48.4896 517.697 51.3542 517.014 54.1211C516.33 56.8555 515.337 59.4271 514.035 61.8359C512.766 64.2448 511.203 66.4583 509.348 68.4766C507.525 70.4622 505.458 72.1712 503.146 73.6035C500.868 75.0358 498.378 76.1589 495.676 76.9727C492.974 77.7539 490.109 78.1445 487.082 78.1445C484.152 78.1445 481.353 77.7702 478.684 77.0215C476.047 76.2728 473.573 75.2311 471.262 73.8965C468.951 72.5293 466.851 70.9017 464.963 69.0137C463.107 67.0931 461.512 64.9772 460.178 62.666C458.876 60.3223 457.85 57.8158 457.102 55.1465C456.385 52.4772 456.027 49.694 456.027 46.7969C456.027 43.9648 456.369 41.1979 457.053 38.4961C457.736 35.7617 458.713 33.1901 459.982 30.7812C461.285 28.3724 462.847 26.1589 464.67 24.1406C466.493 22.1224 468.527 20.3809 470.773 18.916C473.052 17.4512 475.51 16.3118 478.146 15.498C480.783 14.6842 483.566 14.2773 486.496 14.2773C491.216 14.2773 495.513 15.0098 499.387 16.4746C503.293 17.9395 506.613 20.0391 509.348 22.7734C512.115 25.4753 514.247 28.763 515.744 32.6367C517.274 36.4779 518.039 40.7747 518.039 45.5273ZM496.359 46.7969C496.359 45.3971 496.148 44.0462 495.725 42.7441C495.334 41.4095 494.748 40.2376 493.967 39.2285C493.186 38.1868 492.209 37.3568 491.037 36.7383C489.898 36.0872 488.579 35.7617 487.082 35.7617C485.552 35.7617 484.185 36.0384 482.98 36.5918C481.776 37.1452 480.734 37.9102 479.855 38.8867C479.009 39.8307 478.358 40.9538 477.902 42.2559C477.447 43.5254 477.219 44.8763 477.219 46.3086C477.219 47.6758 477.414 49.043 477.805 50.4102C478.195 51.7773 478.781 53.0143 479.562 54.1211C480.344 55.2279 481.304 56.123 482.443 56.8066C483.615 57.4902 484.966 57.832 486.496 57.832C488.026 57.832 489.393 57.5391 490.598 56.9531C491.835 56.3346 492.876 55.5208 493.723 54.5117C494.569 53.4701 495.22 52.2819 495.676 50.9473C496.132 49.6126 496.359 48.2292 496.359 46.7969ZM587.863 9.98047L584.348 76.1914L558.762 78.5352L545.09 43.0859L542.941 79.2188H520.969L522.727 9.98047L547.141 8.80859L564.035 43.9648L564.816 10.7617L587.863 9.98047ZM641.867 54.0234C641.867 58.4831 641.086 62.3893 639.523 65.7422C637.993 69.0625 635.878 71.8294 633.176 74.043C630.507 76.2565 627.365 77.9167 623.752 79.0234C620.171 80.1302 616.314 80.6836 612.18 80.6836C610.585 80.6836 608.827 80.472 606.906 80.0488C605.018 79.6257 603.098 79.1048 601.145 78.4863C599.191 77.8353 597.303 77.1517 595.48 76.4355C593.69 75.6868 592.095 74.987 590.695 74.3359L592.844 54.2188C595.611 55.8789 598.671 57.1484 602.023 58.0273C605.409 58.8737 608.729 59.2969 611.984 59.2969C612.603 59.2969 613.352 59.2806 614.23 59.248C615.109 59.1829 615.939 59.0365 616.721 58.8086C617.535 58.5482 618.218 58.1738 618.771 57.6855C619.325 57.1973 619.602 56.4974 619.602 55.5859C619.602 54.9674 619.406 54.4466 619.016 54.0234C618.625 53.5677 618.12 53.2096 617.502 52.9492C616.883 52.6562 616.184 52.4447 615.402 52.3145C614.621 52.1517 613.856 52.0378 613.107 51.9727C612.359 51.9076 611.659 51.875 611.008 51.875C610.357 51.875 609.836 51.875 609.445 51.875C606.646 51.875 604.09 51.3867 601.779 50.4102C599.501 49.4336 597.531 48.0827 595.871 46.3574C594.243 44.5996 592.974 42.5326 592.062 40.1562C591.151 37.7474 590.695 35.1432 590.695 32.3438C590.695 28.5026 591.46 25.0684 592.99 22.041C594.553 18.9811 596.62 16.3932 599.191 14.2773C601.796 12.1289 604.774 10.485 608.127 9.3457C611.48 8.20638 614.947 7.63672 618.527 7.63672C620.122 7.63672 621.766 7.70182 623.459 7.83203C625.152 7.92969 626.828 8.125 628.488 8.41797C630.181 8.71094 631.825 9.08529 633.42 9.54102C635.015 9.99674 636.529 10.5664 637.961 11.25L636.105 31.0742C633.892 30.3255 631.564 29.707 629.123 29.2188C626.714 28.6979 624.354 28.4375 622.043 28.4375C621.62 28.4375 621.066 28.4538 620.383 28.4863C619.732 28.4863 619.032 28.5352 618.283 28.6328C617.567 28.6979 616.835 28.8118 616.086 28.9746C615.337 29.1374 614.67 29.3652 614.084 29.6582C613.498 29.9186 613.026 30.2767 612.668 30.7324C612.31 31.1882 612.147 31.7253 612.18 32.3438C612.212 33.0599 612.473 33.6458 612.961 34.1016C613.482 34.5247 614.133 34.8665 614.914 35.127C615.728 35.3548 616.607 35.5176 617.551 35.6152C618.527 35.7129 619.488 35.778 620.432 35.8105C621.376 35.8105 622.255 35.8105 623.068 35.8105C623.882 35.778 624.549 35.7943 625.07 35.8594C627.674 36.0221 630.018 36.5755 632.102 37.5195C634.185 38.4635 635.943 39.7168 637.375 41.2793C638.84 42.8418 639.947 44.7135 640.695 46.8945C641.477 49.043 641.867 51.4193 641.867 54.0234ZM695.432 10.1758L694.943 30.8789L680.393 31.4648L676.682 77.7539L656.076 78.8281L656.174 32.5391L641.623 33.3203L642.209 10.2734L695.432 10.1758ZM744.357 9.58984C744.162 12.6497 743.983 15.6771 743.82 18.6719C743.658 21.6667 743.446 24.694 743.186 27.7539L722.482 28.8281L721.994 34.9805H736.545L735.471 50.1172L720.822 50.6055L720.334 57.7344H732.443H741.037C740.842 61.3151 740.63 64.8796 740.402 68.4277C740.207 71.9434 740.028 75.4753 739.865 79.0234L697.775 80L699.338 9.58984H744.357ZM803.293 32.9297C803.293 35.4688 803.065 37.7799 802.609 39.8633C802.186 41.9141 801.503 43.8021 800.559 45.5273C799.615 47.2526 798.394 48.8477 796.896 50.3125C795.399 51.7773 793.592 53.1771 791.477 54.5117L803.098 75.2148L781.125 79.5117L773.605 58.7109L767.551 58.9062L766.672 79.2188H745.676C745.839 71.7969 745.985 64.4076 746.115 57.0508C746.278 49.694 746.457 42.3047 746.652 34.8828C746.717 31.1393 746.783 27.4284 746.848 23.75C746.913 20.0716 747.043 16.3607 747.238 12.6172C749.517 11.7708 751.763 11.071 753.977 10.5176C756.19 9.96419 758.404 9.54102 760.617 9.24805C762.863 8.92253 765.126 8.71094 767.404 8.61328C769.715 8.48307 772.076 8.41797 774.484 8.41797C778.195 8.41797 781.776 8.9388 785.227 9.98047C788.71 10.9896 791.786 12.5195 794.455 14.5703C797.124 16.6211 799.257 19.1764 800.852 22.2363C802.479 25.2962 803.293 28.8607 803.293 32.9297ZM781.418 34.4922C781.418 33.125 781.223 31.8717 780.832 30.7324C780.474 29.5931 779.921 28.6165 779.172 27.8027C778.456 26.9564 777.544 26.3053 776.438 25.8496C775.363 25.3613 774.094 25.1172 772.629 25.1172C771.978 25.1172 771.343 25.166 770.725 25.2637C770.106 25.3288 769.504 25.4427 768.918 25.6055L768.137 43.7695H769.309C770.708 43.7695 772.124 43.5905 773.557 43.2324C775.021 42.8743 776.324 42.321 777.463 41.5723C778.635 40.8236 779.579 39.8633 780.295 38.6914C781.044 37.5195 781.418 36.1198 781.418 34.4922Z" fill="white"/>
</g>
<defs>
<filter id="filter0_d_212_2601" x="34.0985" y="6.80859" width="330.385" height="84.3633" filterUnits="userSpaceOnUse" color-interpolation-filters="sRGB">
<feFlood flood-opacity="0" result="BackgroundImageFix"/>
<feColorMatrix in="SourceAlpha" type="matrix" values="0 0 0 0 0 0 0 0 0 0 0 0 0 0 0 0 0 0 127 0" result="hardAlpha"/>
<feOffset dx="7" dy="8"/>
<feGaussianBlur stdDeviation="2"/>
<feComposite in2="hardAlpha" operator="out"/>
<feColorMatrix type="matrix" values="0 0 0 0 0 0 0 0 0 0 0 0 0 0 0 0 0 0 0.25 0"/>
<feBlend mode="normal" in2="BackgroundImageFix" result="effect1_dropShadow_212_2601"/>
<feBlend mode="normal" in="SourceGraphic" in2="effect1_dropShadow_212_2601" result="shape"/>
</filter>
<filter id="filter1_d_212_2601" x="375.172" y="7.63672" width="432.121" height="85.8281" filterUnits="userSpaceOnUse" color-interpolation-filters="sRGB">
<feFlood flood-opacity="0" result="BackgroundImageFix"/>
<feColorMatrix in="SourceAlpha" type="matrix" values="0 0 0 0 0 0 0 0 0 0 0 0 0 0 0 0 0 0 127 0" result="hardAlpha"/>
<feOffset dy="8"/>
<feGaussianBlur stdDeviation="2"/>
<feComposite in2="hardAlpha" operator="out"/>
<feColorMatrix type="matrix" values="0 0 0 0 0 0 0 0 0 0 0 0 0 0 0 0 0 0 0.25 0"/>
<feBlend mode="normal" in2="BackgroundImageFix" result="effect1_dropShadow_212_2601"/>
<feBlend mode="normal" in="SourceGraphic" in2="effect1_dropShadow_212_2601" result="shape"/>
</filter>
</defs>
</svg>
